<?xml version="1.0" standalone="no"?>
  <!DOCTYPE svg PUBLIC "-//W3C//DTD SVG 1.1//EN" "http://www.w3.org/Graphics/SVG/1.1/DTD/svg11.dtd" >
  <svg>
  <metadata>
  Created by font-carrier
  </metadata>
  <defs>
  <font id="NotoSans-LightItalic" horiz-adv-x="2704" vert-adv-y="2704" >
    <font-face
      
      font-family="Noto Sans Light"
      
      font-weight="400"
      
      font-stretch="normal"
      
      units-per-em="1000"
      
      ascent="1069"
      
      descent="-293"
      
    />
      <missing-glyph />

      

      
      <glyph glyph-name="uni21" unicode="&#x21;" d="M77 188L180 714L247 714L124 188L77 188M64-11Q26-11 26 27Q26 50 38.50 68.50Q51 87 78 87Q95 87 105 76.50Q115 66 115 49Q115 28 102.50 8.50Q90-11 64-11Z"  horiz-adv-x="236" vert-adv-y="1000"  />

      
      <glyph glyph-name="uni22" unicode="&#x22;" d="M264 456L308 714L370 714L302 456L264 456M110 456L152 714L214 714L148 456L110 456Z"  horiz-adv-x="351" vert-adv-y="1000"  />

      
      <glyph glyph-name="uni23" unicode="&#x23;" d="M102 0L164 218L32 218L36 263L176 263L232 450L93 450L97 494L244 494L307 714L356 714L292 494L458 494L522 714L568 714L505 494L639 494L634 450L492 450L439 263L580 263L576 218L426 218L362 0L314 0L379 218L212 218L149 0L102 0M225 263L392 263L444 450L279 450L225 263Z"  horiz-adv-x="630" vert-adv-y="1000"  />

      
      <glyph glyph-name="uni24" unicode="&#x24;" d="M178-58L202 50Q156 52 113.50 61Q71 70 43 82L43 136Q77 120 121.50 109.50Q166 99 212 98L266 345Q203 368 165.50 401.50Q128 435 128 498Q128 554 156 591.50Q184 629 231 649.50Q278 670 334 674L352 758L397 758L380 674Q458 668 519 638L497 590Q438 620 370 625L317 380Q384 354 421 323.50Q458 293 458 232Q458 176 429 137Q400 98 352 76.50Q304 55 247 50L223-58L178-58M276 396L324 625Q263 620 222.50 588.50Q182 557 182 500Q182 460 208 436.50Q234 413 276 396M258 100Q297 103 330 118.50Q363 134 383.50 161Q404 188 404 227Q404 265 379 287.50Q354 310 306 329L258 100Z"  horiz-adv-x="550" vert-adv-y="1000"  />

      
      <glyph glyph-name="uni25" unicode="&#x25;" d="M192 276Q140 276 111.50 310.50Q83 345 83 414Q83 446 88.50 486.50Q94 527 107 568.50Q120 610 141.50 645.50Q163 681 194.50 702.50Q226 724 269 724Q378 724 378 591Q378 561 372 520.50Q366 480 353 437.50Q340 395 318.50 358.50Q297 322 266 299Q235 276 192 276M116 0L645 714L699 714L170 0L116 0M196 322Q226 322 248 342Q270 362 285.50 393.50Q301 425 310.50 461Q320 497 324 530.50Q328 564 328 587Q328 635 312.50 657Q297 679 266 679Q236 679 213.50 660Q191 641 175.50 610.50Q160 580 150.50 544.50Q141 509 136.50 475Q132 441 132 416Q132 322 196 322M544-11Q493-11 464.50 23.50Q436 58 436 127Q436 159 442 200Q448 241 461 282.50Q474 324 495.50 359Q517 394 548 415.50Q579 437 622 437Q732 437 732 304Q732 274 726 233.50Q720 193 706.50 150.50Q693 108 671.50 71.50Q650 35 618.50 12Q587-11 544-11M548 34Q578 34 600.50 54Q623 74 638.50 105.50Q654 137 663.50 173.50Q673 210 677.50 243.50Q682 277 682 300Q682 348 666 370Q650 392 618 392Q589 392 567 373Q545 354 529.50 323.50Q514 293 504.50 257.50Q495 222 490.50 188Q486 154 486 129Q486 34 548 34Z"  horiz-adv-x="781" vert-adv-y="1000"  />

      
      <glyph glyph-name="uni26" unicode="&#x26;" d="M220-10Q141-10 90.50 33.50Q40 77 40 157Q40 217 65.50 259.50Q91 302 137.50 334.50Q184 367 246 396Q220 433 204 470.50Q188 508 188 548Q188 598 210.50 638.50Q233 679 274.50 702Q316 725 374 725Q439 725 480 687.50Q521 650 521 590Q521 536 494 499.50Q467 463 421.50 436Q376 409 320 382L474 167Q508 199 537 242.50Q566 286 585 333L642 333Q616 272 581 221Q546 170 503 127L595 0L528 0L464 92Q413 47 356.50 18.50Q300-10 220-10M294 418Q331 435 370.50 456.50Q410 478 437.50 509Q465 540 465 586Q465 626 438.50 651.50Q412 677 370 677Q314 677 279 643Q244 609 244 548Q244 515 256.50 483.50Q269 452 294 418M230 39Q295 39 342.50 64.50Q390 90 436 130L272 360Q222 336 182 309.50Q142 283 119 247.50Q96 212 96 161Q96 103 135 71Q174 39 230 39Z"  horiz-adv-x="678" vert-adv-y="1000"  />

      
      <glyph glyph-name="uni27" unicode="&#x27;" d="M110 456L152 714L214 714L148 456L110 456Z"  horiz-adv-x="196" vert-adv-y="1000"  />

      
      <glyph glyph-name="uni28" unicode="&#x28;" d="M104-158Q71-100 53.50-28Q36 44 36 126Q36 306 103 454Q170 602 282 714L339 714Q264 636 208 543Q152 450 121.50 344.50Q91 239 91 126Q91-37 153-158L104-158Z"  horiz-adv-x="266" vert-adv-y="1000"  />

      
      <glyph glyph-name="uni29" unicode="&#x29;" d="M-70-158Q5-80 60.50 13Q116 106 147 211.50Q178 317 178 430Q178 512 162 583Q146 654 116 714L164 714Q197 656 214.50 584Q232 512 232 430Q232 250 165.50 102Q99-46-13-158L-70-158Z"  horiz-adv-x="266" vert-adv-y="1000"  />

      
      <glyph glyph-name="uni2a" unicode="&#x2a;" d="M384 319L318 512L182 358L142 399L294 534L115 609L136 660L313 562L342 760L399 748L345 555L549 574L546 518L352 522L439 338L384 319Z"  horiz-adv-x="541" vert-adv-y="1000"  />

      
      <glyph glyph-name="uni2b" unicode="&#x2b;" d="M329 376L538 376L538 329L329 329L329 117L281 117L281 329L72 329L72 376L281 376L281 589L329 589L329 376Z"  horiz-adv-x="571" vert-adv-y="1000"  />

      
      <glyph glyph-name="uni2c" unicode="&#x2c;" d="M-44-129Q-12-63 13-0.50Q38 62 58 116L119 116L122 104Q99 50 66.50-13Q34-76 1-129L-44-129Z"  horiz-adv-x="219" vert-adv-y="1000"  />

      
      <glyph glyph-name="uni2d" unicode="&#x2d;" d="M32 243L44 296L277 296L266 243L32 243Z"  horiz-adv-x="312" vert-adv-y="1000"  />

      
      <glyph glyph-name="uni2e" unicode="&#x2e;" d="M64-11Q26-11 26 26Q26 49 39 68Q52 87 80 87Q115 87 115 50Q115 28 102.50 8.50Q90-11 64-11Z"  horiz-adv-x="233" vert-adv-y="1000"  />

      
      <glyph glyph-name="uni2f" unicode="&#x2f;" d="M-44 0L357 714L416 714L15 0L-44 0Z"  horiz-adv-x="331" vert-adv-y="1000"  />

      
      <glyph glyph-name="uni30" unicode="&#x30;" d="M236-10Q154-10 108 48.50Q62 107 62 218Q62 280 72.50 350Q83 420 104.50 486.50Q126 553 160.50 607Q195 661 243.50 693Q292 725 356 725Q445 725 488 667.50Q531 610 531 508Q531 435 519.50 361Q508 287 485 220.50Q462 154 427 102Q392 50 344.50 20Q297-10 236-10M242 40Q288 40 324.50 68Q361 96 388.50 144Q416 192 434.50 252.50Q453 313 462.50 379Q472 445 472 508Q472 588 443.50 631.50Q415 675 354 675Q306 675 268.50 646.50Q231 618 202.50 569.50Q174 521 155.50 461.50Q137 402 128 339Q119 276 119 218Q119 40 242 40Z"  horiz-adv-x="550" vert-adv-y="1000"  />

      
      <glyph glyph-name="uni31" unicode="&#x31;" d="M216 0L322 502Q332 547 341 585.50Q350 624 358 650Q331 626 294 601L182 528L154 572L374 714L426 714L274 0L216 0Z"  horiz-adv-x="550" vert-adv-y="1000"  />

      
      <glyph glyph-name="uni32" unicode="&#x32;" d="M6 0L16 49L262 271Q318 322 362 366.50Q406 411 432 458Q458 505 458 563Q458 614 427 644Q396 674 341 674Q298 674 258 657Q218 640 178 611L150 651Q196 686 245 705Q294 724 346 724Q427 724 472.50 681Q518 638 518 570Q518 507 492 454.50Q466 402 417.50 350.50Q369 299 300 238L93 55L93 52L442 52L432 0L6 0Z"  horiz-adv-x="550" vert-adv-y="1000"  />

      
      <glyph glyph-name="uni33" unicode="&#x33;" d="M210-10Q151-10 104.50 1.50Q58 13 22 31L22 87Q55 68 105.50 53.50Q156 39 211 39Q305 39 357.50 86Q410 133 410 208Q410 276 366 311Q322 346 246 346L175 346L185 394L257 394Q308 394 356 413Q404 432 435 469.50Q466 507 466 565Q466 615 433 644.50Q400 674 348 674Q298 674 253.50 657.50Q209 641 164 610L136 652Q181 684 234.50 704Q288 724 352 724Q433 724 479 681Q525 638 525 570Q525 516 501 474.50Q477 433 435.50 406.50Q394 380 342 370L342 367Q400 356 435 315Q470 274 470 210Q470 150 440.50 100Q411 50 353 20Q295-10 210-10Z"  horiz-adv-x="550" vert-adv-y="1000"  />

      
      <glyph glyph-name="uni34" unicode="&#x34;" d="M309 0L347 178L11 178L20 227L450 716L516 716L414 230L532 230L521 178L402 178L364 0L309 0M84 230L358 230L408 468Q421 526 433 572Q445 618 454 655L452 655Q436 632 417 608Q398 584 378 562L84 230Z"  horiz-adv-x="550" vert-adv-y="1000"  />

      
      <glyph glyph-name="uni35" unicode="&#x35;" d="M203-10Q154-10 110.50 1Q67 12 38 30L38 88Q70 66 114 52.50Q158 39 204 39Q304 39 363 93.50Q422 148 422 242Q422 308 383 346Q344 384 273 384Q236 384 207 378.50Q178 373 143 364L117 386L214 714L536 714L526 662L252 662L180 418Q201 422 227.50 427Q254 432 289 432Q375 432 428 382Q481 332 481 248Q481 174 449 116Q417 58 355 24Q293-10 203-10Z"  horiz-adv-x="550" vert-adv-y="1000"  />

      
      <glyph glyph-name="uni36" unicode="&#x36;" d="M252-10Q159-10 112.50 49.50Q66 109 66 209Q66 261 76.50 319.50Q87 378 107 436.50Q127 495 156.50 546.50Q186 598 224 636Q269 681 327 703Q385 725 451 725Q507 725 544 712L532 662Q516 668 494.50 671.50Q473 675 446 675Q378 675 318 642.50Q258 610 211.50 537.50Q165 465 137 344L140 344Q168 384 216 414Q264 444 331 444Q406 444 451 396.50Q496 349 496 268Q496 194 465.50 130.50Q435 67 380 28.50Q325-10 252-10M256 39Q312 39 353 72Q394 105 416 156.50Q438 208 438 264Q438 327 406 361.50Q374 396 314 396Q267 396 228.50 375.50Q190 355 165 325.50Q140 296 132 268Q127 254 124.50 236Q122 218 122 200Q122 162 134 124.50Q146 87 175 63Q204 39 256 39Z"  horiz-adv-x="550" vert-adv-y="1000"  />

      
      <glyph glyph-name="uni37" unicode="&#x37;" d="M98 0L489 662L118 662L128 714L562 714L554 670L161 0L98 0Z"  horiz-adv-x="550" vert-adv-y="1000"  />

      
      <glyph glyph-name="uni38" unicode="&#x38;" d="M242-10Q180-10 136 13Q92 36 69 75Q46 114 46 164Q46 221 72.50 261.50Q99 302 146 330.50Q193 359 254 380Q213 408 184 445Q155 482 155 540Q155 597 182 638Q209 679 255.50 701.50Q302 724 361 724Q418 724 457 703Q496 682 516 648Q536 614 536 574Q536 520 511.50 482.50Q487 445 445.50 418.50Q404 392 354 372Q408 342 444 302Q480 262 480 192Q480 132 451 86.50Q422 41 368.50 15.50Q315-10 242-10M310 400Q386 428 432 466.50Q478 505 478 569Q478 618 444 646.50Q410 675 357 675Q294 675 253 639.50Q212 604 212 540Q212 490 239 458Q266 426 310 400M247 39Q325 39 373.50 80.50Q422 122 422 190Q422 250 389.50 284.50Q357 319 300 351Q247 334 202.50 311.50Q158 289 131 254.50Q104 220 104 166Q104 106 144.50 72.50Q185 39 247 39Z"  horiz-adv-x="550" vert-adv-y="1000"  />

      
      <glyph glyph-name="uni39" unicode="&#x39;" d="M165-10Q97-10 47 6L47 61Q70 53 101 46.50Q132 40 166 40Q262 40 336 116.50Q410 193 450 365L446 365Q420 327 374 298.50Q328 270 264 270Q183 270 138.50 318.50Q94 367 94 448Q94 524 125.50 587Q157 650 212.50 687Q268 724 339 724Q430 724 476 665Q522 606 522 506Q522 453 511 392.50Q500 332 480 272.50Q460 213 431.50 161.50Q403 110 368 75Q324 30 272 10Q220-10 165-10M274 318Q319 318 356 335.50Q393 353 419 381.50Q445 410 456 445Q460 459 463 476Q466 493 466 514Q466 558 452.50 594Q439 630 410.50 652Q382 674 336 674Q278 674 236.50 642.50Q195 611 172.50 560Q150 509 150 450Q150 388 183 353Q216 318 274 318Z"  horiz-adv-x="550" vert-adv-y="1000"  />

      
      <glyph glyph-name="uni3a" unicode="&#x3a;" d="M154 442Q116 442 116 479Q116 502 129.50 521.50Q143 541 170 541Q206 541 206 504Q206 482 193 462Q180 442 154 442M63-11Q26-11 26 26Q26 49 39 68Q52 87 80 87Q115 87 115 50Q115 28 102 8.50Q89-11 63-11Z"  horiz-adv-x="233" vert-adv-y="1000"  />

      
      <glyph glyph-name="uni3b" unicode="&#x3b;" d="M154 442Q116 442 116 479Q116 502 129 521.50Q142 541 170 541Q205 541 205 504Q205 482 192.50 462Q180 442 154 442M-47-129Q-16-63 10-0.50Q36 62 55 116L116 116L119 104Q96 50 63.50-13Q31-76-2-129L-47-129Z"  horiz-adv-x="233" vert-adv-y="1000"  />

      
      <glyph glyph-name="uni3c" unicode="&#x3c;" d="M538 127L73 338L73 372L538 597L538 545L138 357L538 179L538 127Z"  horiz-adv-x="571" vert-adv-y="1000"  />

      
      <glyph glyph-name="uni3d" unicode="&#x3d;" d="M76 430L76 477L534 477L534 430L76 430M76 228L76 276L534 276L534 228L76 228Z"  horiz-adv-x="571" vert-adv-y="1000"  />

      
      <glyph glyph-name="uni3e" unicode="&#x3e;" d="M73 179L473 356L73 545L73 597L538 372L538 338L73 127L73 179Z"  horiz-adv-x="571" vert-adv-y="1000"  />

      
      <glyph glyph-name="uni3f" unicode="&#x3f;" d="M124 188Q132 238 148 271Q164 304 189 330Q214 356 251 384Q284 409 313.50 433.50Q343 458 361.50 488Q380 518 380 562Q380 614 350 644Q320 674 267 674Q233 674 198.50 663.50Q164 653 129 637L108 682Q192 724 272 724Q348 724 393 682.50Q438 641 438 568Q438 520 420 483.50Q402 447 368.50 415.50Q335 384 290 352Q255 326 231.50 305Q208 284 194 257Q180 230 172 188L124 188M116-11Q79-11 79 26Q79 49 92 68Q105 87 132 87Q168 87 168 50Q168 28 155 8.50Q142-11 116-11Z"  horiz-adv-x="416" vert-adv-y="1000"  />

      
      <glyph glyph-name="uni40" unicode="&#x40;" d="M380-90Q288-90 214-52Q140-14 97 60.50Q54 135 54 244Q54 333 85 416.50Q116 500 175.50 566Q235 632 321.50 671Q408 710 520 710Q617 710 682.50 671Q748 632 781 565Q814 498 814 414Q814 328 787 258Q760 188 713 147Q666 106 606 106Q556 106 535 132Q514 158 512 202L510 202Q485 158 447.50 132Q410 106 360 106Q308 106 275 140.50Q242 175 242 238Q242 318 276 380Q310 442 367 477Q424 512 491 512Q532 512 563 504Q594 496 620 486L578 326Q568 287 562 261.50Q556 236 556 217Q556 150 610 150Q653 150 688 186.50Q723 223 743.50 282.50Q764 342 764 410Q764 483 737 540.50Q710 598 654 631Q598 664 512 664Q417 664 341.50 631Q266 598 213 540Q160 482 132.50 406.50Q105 331 105 246Q105 151 141 86Q177 21 240.50-12Q304-45 386-45Q437-45 488.50-35Q540-25 587-7L587-52Q538-70 486-80Q434-90 380-90M370 150Q426 150 464.50 195.50Q503 241 525 320L561 455Q547 460 527.50 464Q508 468 484 468Q432 468 389 439Q346 410 320 359Q294 308 294 242Q294 196 314 173Q334 150 370 150Z"  horiz-adv-x="841" vert-adv-y="1000"  />

      
      <glyph glyph-name="uni41" unicode="&#x41;" d="M-54 0L350 715L408 715L506 0L449 0L415 246L148 246L10 0L-54 0M176 299L408 299L379 523Q375 552 372.50 586Q370 620 368 650L365 650Q351 619 334.50 586Q318 553 300 521L176 299Z"  horiz-adv-x="554" vert-adv-y="1000"  />

      
      <glyph glyph-name="uni42" unicode="&#x42;" d="M46 0L196 714L380 714Q584 714 584 560Q584 484 539.50 436Q495 388 419 374L418 370Q472 356 504 319Q536 282 536 222Q536 147 499 97.50Q462 48 398.50 24Q335 0 254 0L46 0M188 399L328 399Q413 399 468.50 437Q524 475 524 555Q524 608 487 635.50Q450 663 371 663L244 663L188 399M114 50L262 50Q324 50 372 68.50Q420 87 447.50 125.50Q475 164 475 222Q475 284 434.50 317Q394 350 314 350L178 350L114 50Z"  horiz-adv-x="599" vert-adv-y="1000"  />

      
      <glyph glyph-name="uni43" unicode="&#x43;" d="M326-10Q209-10 143.50 64.50Q78 139 78 266Q78 358 104.50 440.50Q131 523 181.50 586.50Q232 650 303.50 687Q375 724 464 724Q562 724 632 686L608 636Q546 672 464 672Q389 672 328.50 640Q268 608 225.50 552Q183 496 160.50 423Q138 350 138 268Q138 163 190 102.50Q242 42 334 42Q380 42 421 50Q462 58 500 71L500 20Q464 7 422-1.50Q380-10 326-10Z"  horiz-adv-x="590" vert-adv-y="1000"  />

      
      <glyph glyph-name="uni44" unicode="&#x44;" d="M46 0L196 714L354 714Q486 714 561 643Q636 572 636 427Q636 340 609 262.50Q582 185 528 126Q474 67 393.50 33.50Q313 0 206 0L46 0M114 51L210 51Q300 51 368 80.50Q436 110 482.50 162Q529 214 552.50 282Q576 350 576 428Q576 550 514 606.50Q452 663 343 663L244 663L114 51Z"  horiz-adv-x="672" vert-adv-y="1000"  />

      
      <glyph glyph-name="uni45" unicode="&#x45;" d="M46 0L196 714L556 714L546 662L244 662L188 400L472 400L462 349L178 349L114 52L416 52L406 0L46 0Z"  horiz-adv-x="524" vert-adv-y="1000"  />

      
      <glyph glyph-name="uni46" unicode="&#x46;" d="M46 0L196 714L557 714L546 662L244 662L182 368L466 368L455 316L170 316L103 0L46 0Z"  horiz-adv-x="482" vert-adv-y="1000"  />

      
      <glyph glyph-name="uni47" unicode="&#x47;" d="M338-10Q214-10 146 63Q78 136 78 263Q78 365 107 449.50Q136 534 188 595.50Q240 657 309.50 690.50Q379 724 460 724Q522 724 571 713Q620 702 664 682L642 630Q602 648 556.50 660Q511 672 460 672Q393 672 335 643Q277 614 232.50 560Q188 506 163 431.50Q138 357 138 266Q138 160 192 101Q246 42 343 42Q389 42 430.50 50Q472 58 503 70L555 312L384 312L396 363L624 363L552 32Q505 12 450.50 1Q396-10 338-10Z"  horiz-adv-x="684" vert-adv-y="1000"  />

      
      <glyph glyph-name="uni48" unicode="&#x48;" d="M46 0L197 714L255 714L188 400L556 400L622 714L680 714L529 0L472 0L545 348L178 348L104 0L46 0Z"  horiz-adv-x="680" vert-adv-y="1000"  />

      
      <glyph glyph-name="uni49" unicode="&#x49;" d="M-6 0L1 34L76 46L208 668L138 679L145 714L349 714L342 679L266 668L133 46L205 34L198 0L-6 0Z"  horiz-adv-x="302" vert-adv-y="1000"  />

      
      <glyph glyph-name="uni4a" unicode="&#x4a;" d="M-84-182Q-107-182-128.50-178Q-150-174-163-170L-161-118Q-144-124-124-127Q-104-130-84-130Q-30-130 2-97Q34-64 47 0L198 714L256 714L104-7Q84-98 37-140Q-10-182-84-182Z"  horiz-adv-x="252" vert-adv-y="1000"  />

      
      <glyph glyph-name="uni4b" unicode="&#x4b;" d="M46 0L196 714L254 714L176 346L236 404L568 714L640 714L312 407L497 0L433 0L268 371L164 288L103 0L46 0Z"  horiz-adv-x="552" vert-adv-y="1000"  />

      
      <glyph glyph-name="uni4c" unicode="&#x4c;" d="M46 0L196 714L254 714L114 52L416 52L404 0L46 0Z"  horiz-adv-x="484" vert-adv-y="1000"  />

      
      <glyph glyph-name="uni4d" unicode="&#x4d;" d="M45 0L196 714L278 714L372 89L375 89L733 714L822 714L673 0L615 0L724 513Q741 595 756 652L754 652L379 0L334 0L236 652L232 652Q229 625 222.50 587.50Q216 550 209 513L100 0L45 0Z"  horiz-adv-x="824" vert-adv-y="1000"  />

      
      <glyph glyph-name="uni4e" unicode="&#x4e;" d="M45 0L196 714L253 714L504 89L506 89Q512 126 521 174.50Q530 223 540 266L635 714L690 714L540 0L482 0L230 626L228 626Q222 588 213 540Q204 492 194 445L100 0L45 0Z"  horiz-adv-x="690" vert-adv-y="1000"  />

      
      <glyph glyph-name="uni4f" unicode="&#x4f;" d="M336-10Q247-10 190 26.50Q133 63 105.50 126.50Q78 190 78 272Q78 359 100.50 440Q123 521 168 585.50Q213 650 279 687.50Q345 725 432 725Q548 725 615.50 653.50Q683 582 683 445Q683 385 671 321Q659 257 633 198Q607 139 566 92Q525 45 468 17.50Q411-10 336-10M338 42Q412 42 465.50 79Q519 116 554 176.50Q589 237 605.50 307.50Q622 378 622 446Q622 552 572.50 612.50Q523 673 428 673Q354 673 299.50 638Q245 603 209.50 544.50Q174 486 156.50 415.50Q139 345 139 273Q139 168 188.50 105Q238 42 338 42Z"  horiz-adv-x="718" vert-adv-y="1000"  />

      
      <glyph glyph-name="uni50" unicode="&#x50;" d="M46 0L196 714L354 714Q461 714 511.50 666Q562 618 562 533Q562 421 489 356.50Q416 292 268 292L165 292L103 0L46 0M176 342L276 342Q389 342 446.50 391.50Q504 441 504 531Q504 601 463.50 632Q423 663 346 663L244 663L176 342Z"  horiz-adv-x="562" vert-adv-y="1000"  />

      
      <glyph glyph-name="uni51" unicode="&#x51;" d="M453-170L343-10L331-10Q246-9 189.50 27Q133 63 105.50 126Q78 189 78 272Q78 359 100.50 440Q123 521 168 585.50Q213 650 279 687.50Q345 725 432 725Q548 725 615.50 653.50Q683 582 683 445Q683 378 667.50 306Q652 234 618.50 169.50Q585 105 532 59Q479 13 404-1L528-170L453-170M338 42Q413 42 466.50 79Q520 116 554.50 176.50Q589 237 605.50 307.50Q622 378 622 446Q622 552 572.50 612.50Q523 673 428 673Q354 673 299.50 638Q245 603 209.50 544.50Q174 486 156.50 415.50Q139 345 139 273Q139 168 188.50 105Q238 42 338 42Z"  horiz-adv-x="718" vert-adv-y="1000"  />

      
      <glyph glyph-name="uni52" unicode="&#x52;" d="M46 0L196 714L348 714Q564 714 564 541Q564 455 518 398.50Q472 342 374 320L492 0L428 0L320 308L168 308L103 0L46 0M179 358L294 358Q392 358 448 404Q504 450 504 538Q504 604 463.50 633Q423 662 342 662L244 662L179 358Z"  horiz-adv-x="568" vert-adv-y="1000"  />

      
      <glyph glyph-name="uni53" unicode="&#x53;" d="M192-10Q134-10 93.50-1Q53 8 19 23L19 81Q52 64 94 52.50Q136 41 192 41Q237 41 280.50 56.50Q324 72 352 105Q380 138 380 192Q380 246 345 279Q310 312 244 347Q208 366 178 389.50Q148 413 129.50 445.50Q111 478 111 524Q111 592 144 636.50Q177 681 230 702.50Q283 724 342 724Q398 724 437 713.50Q476 703 514 684L492 634Q458 651 422 661.50Q386 672 342 672Q302 672 263 657.50Q224 643 198 611.50Q172 580 172 528Q172 492 187 468Q202 444 227.50 426Q253 408 286 390Q330 365 365 340Q400 315 420 281Q440 247 440 196Q440 124 405 78.50Q370 33 313.50 11.50Q257-10 192-10Z"  horiz-adv-x="502" vert-adv-y="1000"  />

      
      <glyph glyph-name="uni54" unicode="&#x54;" d="M162 0L302 662L92 662L102 714L582 714L572 662L361 662L220 0L162 0Z"  horiz-adv-x="493" vert-adv-y="1000"  />

      
      <glyph glyph-name="uni55" unicode="&#x55;" d="M300-10Q196-10 140 41Q84 92 84 186Q84 202 86.50 223Q89 244 94 268L188 714L246 714L152 267Q148 246 145 224.50Q142 203 142 187Q142 117 184 79.50Q226 42 303 42Q398 42 455 95Q512 148 534 254L632 714L690 714L592 248Q565 120 493 55Q421-10 300-10Z"  horiz-adv-x="684" vert-adv-y="1000"  />

      
      <glyph glyph-name="uni56" unicode="&#x56;" d="M182 0L99 714L156 714L214 204Q218 170 220.50 134.50Q223 99 224 69L226 69Q239 98 255 130Q271 162 292 203L563 714L627 714L242 0L182 0Z"  horiz-adv-x="544" vert-adv-y="1000"  />

      
      <glyph glyph-name="uni57" unicode="&#x57;" d="M148 0L116 714L172 714L192 225Q195 152 192 81L195 81Q208 114 223 152Q238 190 258 230L488 714L546 714L574 231Q576 194 577 152.50Q578 111 578 79L580 79Q592 111 606 147.50Q620 184 638 224L856 714L917 714L592 0L536 0L506 520Q504 550 503 579.50Q502 609 502 636L500 636Q491 609 480.50 585Q470 561 455 529L206 0L148 0Z"  horiz-adv-x="841" vert-adv-y="1000"  />

      
      <glyph glyph-name="uni58" unicode="&#x58;" d="M-56 0L245 375L114 714L172 714L284 416L522 714L586 714L310 372L452 0L392 0L270 330L9 0L-56 0Z"  horiz-adv-x="508" vert-adv-y="1000"  />

      
      <glyph glyph-name="uni59" unicode="&#x59;" d="M162 0L220 270L94 714L152 714L258 328L524 714L590 714L277 270L220 0L162 0Z"  horiz-adv-x="497" vert-adv-y="1000"  />

      
      <glyph glyph-name="uni5a" unicode="&#x5a;" d="M-9 0L0 44L489 662L144 662L156 714L572 714L564 670L74 52L443 52L432 0L-9 0Z"  horiz-adv-x="534" vert-adv-y="1000"  />

      
      <glyph glyph-name="uni5b" unicode="&#x5b;" d="M-9-158L177 714L370 714L358 664L221 664L57-108L196-108L184-158L-9-158Z"  horiz-adv-x="296" vert-adv-y="1000"  />

      
      <glyph glyph-name="uni5c" unicode="&#x5c;" d="M221 0L103 714L155 714L272 0L221 0Z"  horiz-adv-x="331" vert-adv-y="1000"  />

      
      <glyph glyph-name="uni5d" unicode="&#x5d;" d="M-72-158L-62-108L76-108L240 664L102 664L113 714L306 714L120-158L-72-158Z"  horiz-adv-x="296" vert-adv-y="1000"  />

      
      <glyph glyph-name="uni5e" unicode="&#x5e;" d="M44 272L306 719L343 719L519 272L468 272L322 656L99 272L44 272Z"  horiz-adv-x="561" vert-adv-y="1000"  />

      
      <glyph glyph-name="uni5f" unicode="&#x5f;" d="M-88-146L-78-100L306-100L296-146L-88-146Z"  horiz-adv-x="383" vert-adv-y="1000"  />

      
      <glyph glyph-name="uni60" unicode="&#x60;" d="M250 606Q233 624 212.50 652Q192 680 174 708Q156 736 146 756L146 766L208 766Q221 728 243.50 687Q266 646 284 618L284 606L250 606Z"  horiz-adv-x="252" vert-adv-y="1000"  />

      
      <glyph glyph-name="uni61" unicode="&#x61;" d="M195-10Q127-10 88.50 39Q50 88 50 176Q50 244 68 309Q86 374 120.50 427Q155 480 204 511Q253 542 315 542Q356 542 384 525Q412 508 428.50 482.50Q445 457 453 430L456 430L486 532L530 532L418 0L372 0L392 119L389 119Q369 89 340 59Q311 29 274.50 9.50Q238-10 195-10M211 39Q252 39 293.50 69Q335 99 368 150Q401 201 416 265Q424 294 426.50 318Q429 342 429 362Q429 422 399.50 457Q370 492 319 492Q270 492 231 465Q192 438 164.50 392.50Q137 347 122.50 290Q108 233 108 174Q108 110 134.50 74.50Q161 39 211 39Z"  horiz-adv-x="558" vert-adv-y="1000"  />

      
      <glyph glyph-name="uni62" unicode="&#x62;" d="M254-10Q211-10 181 6Q151 22 133.50 48Q116 74 108 102L104 102L74 0L30 0L191 760L248 760L206 562Q197 520 186 476.50Q175 433 170 412L172 412Q194 444 222.50 474Q251 504 288 523Q325 542 370 542Q439 542 480.50 493Q522 444 522 356Q522 289 504.50 224Q487 159 453 106Q419 53 369 21.50Q319-10 254-10M251 39Q302 39 341.50 66.50Q381 94 408 140.50Q435 187 449 243.50Q463 300 463 357Q463 422 434.50 457Q406 492 354 492Q310 492 269.50 465Q229 438 197.50 392Q166 346 148 288.50Q130 231 130 170Q130 107 162 73Q194 39 251 39Z"  horiz-adv-x="574" vert-adv-y="1000"  />

      
      <glyph glyph-name="uni63" unicode="&#x63;" d="M247-10Q156-10 104 44Q52 98 52 192Q52 262 71 325.50Q90 389 126 437.50Q162 486 214 514Q266 542 332 542Q404 542 460 517L443 468Q420 478 391 485Q362 492 332 492Q264 492 214.50 451.50Q165 411 137.50 343.50Q110 276 110 194Q110 126 146.50 82.50Q183 39 252 39Q288 39 318.50 47.50Q349 56 380 70L380 20Q354 7 321-1.50Q288-10 247-10Z"  horiz-adv-x="452" vert-adv-y="1000"  />

      
      <glyph glyph-name="uni64" unicode="&#x64;" d="M197-10Q126-10 88 39Q50 88 50 176Q50 243 67.50 308Q85 373 119 426Q153 479 203 510.50Q253 542 318 542Q361 542 390.50 525.50Q420 509 438 483.50Q456 458 463 430L466 430Q471 464 476.50 497Q482 530 490 564L532 760L588 760L428 0L380 0L400 120L397 120Q374 88 344.50 58Q315 28 278.50 9Q242-10 197-10M213 39Q253 39 293 65Q333 91 366.50 135.50Q400 180 420 238Q440 296 440 361Q440 424 408.50 458Q377 492 320 492Q269 492 230 464.50Q191 437 163.50 391Q136 345 122 288.50Q108 232 108 174Q108 109 134 74Q160 39 213 39Z"  horiz-adv-x="574" vert-adv-y="1000"  />

      
      <glyph glyph-name="uni65" unicode="&#x65;" d="M244-10Q162-10 108.50 41Q55 92 55 193Q55 261 74.50 323.50Q94 386 130 435.50Q166 485 215.50 513.50Q265 542 324 542Q390 542 427 509.50Q464 477 464 422Q464 334 378 289Q292 244 142 244L116 244Q113 223 113 194Q113 120 149.50 79.50Q186 39 254 39Q294 39 328.50 50Q363 61 395 76L395 26Q365 11 327.50 0.50Q290-10 244-10M124 292L152 292Q224 292 281.50 304.50Q339 317 373 345Q407 373 407 418Q407 451 385.50 472Q364 493 320 493Q280 493 240.50 469.50Q201 446 170 401Q139 356 124 292Z"  horiz-adv-x="495" vert-adv-y="1000"  />

      
      <glyph glyph-name="uni66" unicode="&#x66;" d="M-60-240Q-97-240-122-230L-122-180Q-108-184-93-187.50Q-78-191-64-191Q-28-191-7-164Q14-137 25-85L146 486L52 486L58 516L156 534L170 598Q190 686 229.50 725.50Q269 765 343 765Q367 765 390 760.50Q413 756 428 749L412 703Q397 709 380.50 712.50Q364 716 344 716Q294 716 267 689Q240 662 226 596L212 532L330 532L320 486L203 486L80-92Q64-166 31-203Q-2-240-60-240Z"  horiz-adv-x="291" vert-adv-y="1000"  />

      
      <glyph glyph-name="uni67" unicode="&#x67;" d="M179-240Q133-240 93.50-230Q54-220 26-206L26-152Q53-167 95.50-179Q138-191 178-191Q258-191 302.50-150Q347-109 364-30L374 9Q378 28 383.50 51Q389 74 393.50 93Q398 112 401 122L398 122Q376 89 346 58.50Q316 28 279 9Q242-10 198-10Q126-10 88 39Q50 88 50 176Q50 243 67.50 308Q85 373 119 426Q153 479 203 510.50Q253 542 318 542Q361 542 390.50 525.50Q420 509 438 483.50Q456 458 464 430L466 430L496 532L541 532L421-30Q399-134 340.50-187Q282-240 179-240M214 39Q254 39 294 65Q334 91 367 136Q400 181 420 239Q440 297 440 361Q440 424 409.50 458Q379 492 321 492Q270 492 230.50 464.50Q191 437 163.50 391Q136 345 122 288.50Q108 232 108 174Q108 110 134 74.50Q160 39 214 39Z"  horiz-adv-x="574" vert-adv-y="1000"  />

      
      <glyph glyph-name="uni68" unicode="&#x68;" d="M30 0L191 760L248 760L205 560Q198 524 188.50 486Q179 448 170 412L173 412Q192 441 220 471Q248 501 286 521.50Q324 542 373 542Q437 542 472.50 508Q508 474 508 408Q508 392 505 373Q502 354 498 334L428 0L370 0L442 340Q446 360 448 375Q450 390 450 403Q450 492 359 492Q314 492 269.50 463Q225 434 190.50 380.50Q156 327 140 252L87 0L30 0Z"  horiz-adv-x="566" vert-adv-y="1000"  />

      
      <glyph glyph-name="uni69" unicode="&#x69;" d="M201 642Q185 642 175.50 651Q166 660 166 676Q166 696 177 712Q188 728 210 728Q228 728 236 718.50Q244 709 244 695Q244 673 231 657.50Q218 642 201 642M30 0L143 532L200 532L87 0L30 0Z"  horiz-adv-x="232" vert-adv-y="1000"  />

      
      <glyph glyph-name="uni6a" unicode="&#x6a;" d="M200 642Q185 642 175.50 651Q166 660 166 676Q166 696 177 712Q188 728 210 728Q228 728 236 718.50Q244 709 244 695Q244 673 231 657.50Q218 642 200 642M-75-240Q-111-240-134-230L-134-180Q-109-191-77-191Q-42-191-20.50-165.50Q1-140 11-92L143 532L200 532L66-98Q52-166 19-203Q-14-240-75-240Z"  horiz-adv-x="232" vert-adv-y="1000"  />

      
      <glyph glyph-name="uni6b" unicode="&#x6b;" d="M30 0L190 760L248 760L176 421Q162 356 151 314Q140 272 132 240L133 240L432 532L501 532L264 302L411 0L348 0L220 266L125 183L87 0L30 0Z"  horiz-adv-x="467" vert-adv-y="1000"  />

      
      <glyph glyph-name="uni6c" unicode="&#x6c;" d="M30 0L191 760L248 760L86 0L30 0Z"  horiz-adv-x="232" vert-adv-y="1000"  />

      
      <glyph glyph-name="uni6d" unicode="&#x6d;" d="M30 0L143 532L190 532L170 413L174 413Q190 442 216 471.50Q242 501 277 521.50Q312 542 358 542Q420 542 448.50 506Q477 470 478 408L481 408Q499 439 526.50 470Q554 501 591 521.50Q628 542 674 542Q734 542 767 508.50Q800 475 800 411Q800 373 791 334L720 0L663 0L736 340Q740 360 742 375.50Q744 391 744 405Q744 492 658 492Q616 492 576 462.50Q536 433 504 380.50Q472 328 458 258L403 0L346 0L417 333Q422 355 424 373.50Q426 392 426 404Q426 446 405 469Q384 492 342 492Q301 492 260.50 463Q220 434 188 380Q156 326 140 252L87 0L30 0Z"  horiz-adv-x="858" vert-adv-y="1000"  />

      
      <glyph glyph-name="uni6e" unicode="&#x6e;" d="M28-1L142 534L192 534L172 414L173 414Q190 442 218.50 472Q247 502 285.50 523Q324 544 373 544Q438 544 474 509.50Q510 475 510 411Q510 392 507 371.50Q504 351 500 334L428-1L368-1L441 341Q445 360 447.50 375Q450 390 450 404Q450 448 426 469.50Q402 491 359 491Q314 491 270 462.50Q226 434 192 380.50Q158 327 142 252L88-1L28-1Z"  horiz-adv-x="566" vert-adv-y="1000"  />

      
      <glyph glyph-name="uni6f" unicode="&#x6f;" d="M242-9Q150-9 101 47Q52 103 52 195Q52 265 71 327.50Q90 390 125.50 437.50Q161 485 211 512.50Q261 540 324 540Q414 540 463.50 484Q513 428 513 337Q513 271 495.50 209Q478 147 443.50 98Q409 49 358.50 20Q308-9 242-9M246 40Q308 40 355 78.50Q402 117 428 185Q454 253 454 342Q454 382 440 416Q426 450 397 471Q368 492 323 492Q260 492 212 453.50Q164 415 136.50 347.50Q109 280 109 194Q109 122 144 81Q179 40 246 40Z"  horiz-adv-x="564" vert-adv-y="1000"  />

      
      <glyph glyph-name="uni70" unicode="&#x70;" d="M-20-236L143 532L190 532L170 412L173 412Q194 444 223 474Q252 504 289 523Q326 542 371 542Q439 542 480.50 493Q522 444 522 356Q522 289 504.50 224Q487 159 453 106Q419 53 369 21.50Q319-10 254-10Q190-10 155 24Q120 58 108 102L104 102Q100 76 94.50 44.50Q89 13 84-12L37-236L-20-236M251 39Q302 39 341.50 66.50Q381 94 408 140.50Q435 187 449 243.50Q463 300 463 357Q463 422 434.50 457Q406 492 354 492Q311 492 271 465.50Q231 439 199 393.50Q167 348 148.50 290Q130 232 130 170Q130 107 162 73Q194 39 251 39Z"  horiz-adv-x="574" vert-adv-y="1000"  />

      
      <glyph glyph-name="uni71" unicode="&#x71;" d="M321-236L368-14Q372 5 378.50 32Q385 59 391.50 84Q398 109 401 122L398 122Q377 90 347 59.50Q317 29 279.50 9.50Q242-10 198-10Q127-10 88.50 39Q50 88 50 176Q50 243 67.50 308Q85 373 119 426Q153 479 203 510.50Q253 542 318 542Q361 542 390.50 525.50Q420 509 438 483.50Q456 458 463 430L466 430L496 532L540 532L378-236L321-236M214 39Q255 39 295.50 65.50Q336 92 368.50 138Q401 184 420.50 241.50Q440 299 440 361Q440 422 408.50 457Q377 492 321 492Q270 492 230.50 464.50Q191 437 163.50 391Q136 345 122 288.50Q108 232 108 174Q108 110 133.50 74.50Q159 39 214 39Z"  horiz-adv-x="574" vert-adv-y="1000"  />

      
      <glyph glyph-name="uni72" unicode="&#x72;" d="M30 0L143 532L190 532L170 413L174 413Q192 442 218 471.50Q244 501 278 521Q312 541 354 541Q369 541 384 539Q399 537 412 534L400 482Q376 488 348 488Q300 488 257 455Q214 422 184 369Q154 316 141 256L87 0L30 0Z"  horiz-adv-x="384" vert-adv-y="1000"  />

      
      <glyph glyph-name="uni73" unicode="&#x73;" d="M160-10Q109-10 71.50 1Q34 12 9 26L9 81Q37 64 76 51Q115 38 158 38Q228 38 262 67Q296 96 296 141Q296 181 268 203.50Q240 226 194 252Q140 282 107 313Q74 344 74 396Q74 466 124.50 504Q175 542 252 542Q300 542 339 532Q378 522 406 508L387 461Q361 474 326.50 483Q292 492 252 492Q199 492 165.50 469Q132 446 132 400Q132 364 157 342.50Q182 321 231 295Q264 276 292 257Q320 238 337 212Q354 186 354 146Q354 76 304 33Q254-10 160-10Z"  horiz-adv-x="428" vert-adv-y="1000"  />

      
      <glyph glyph-name="uni74" unicode="&#x74;" d="M166-10Q114-10 84 15Q54 40 54 94Q54 108 56 125Q58 142 62 159L131 486L51 486L58 517L141 538L189 658L226 658L198 532L347 532L337 486L188 486L119 160Q116 145 113.50 129.50Q111 114 111 100Q111 72 125.50 55Q140 38 172 38Q193 38 211 41.50Q229 45 246 51L246 5Q232 0 210.50-5Q189-10 166-10Z"  horiz-adv-x="320" vert-adv-y="1000"  />

      
      <glyph glyph-name="uni75" unicode="&#x75;" d="M190-10Q127-10 91 24Q55 58 55 122Q55 140 57.50 159Q60 178 64 198L136 532L193 532L120 191Q116 172 114 156.50Q112 141 112 128Q112 39 204 39Q249 39 293.50 68Q338 97 372.50 151Q407 205 423 280L476 532L533 532L420 0L373 0L392 119L389 119Q372 91 343.50 61Q315 31 276.50 10.50Q238-10 190-10Z"  horiz-adv-x="566" vert-adv-y="1000"  />

      
      <glyph glyph-name="uni76" unicode="&#x76;" d="M121 0L49 532L106 532L150 188Q155 152 158 113Q161 74 162 51L165 51Q179 82 197.50 120Q216 158 234 189L426 532L487 532L189 0L121 0Z"  horiz-adv-x="438" vert-adv-y="1000"  />

      
      <glyph glyph-name="uni77" unicode="&#x77;" d="M83 0L56 532L111 532L126 203Q128 156 128 120.50Q128 85 126 59L130 59Q140 87 155 121.50Q170 156 190 194L357 532L414 532L442 202Q445 164 446.50 127Q448 90 448 59L450 59Q460 90 476 128Q492 166 514 214L661 532L721 532L472 0L407 0L380 340Q377 372 376.50 401Q376 430 375 467L372 467Q359 435 347.50 408.50Q336 382 318 344L146 0L83 0Z"  horiz-adv-x="687" vert-adv-y="1000"  />

      
      <glyph glyph-name="uni78" unicode="&#x78;" d="M-35 0L200 274L82 532L142 532L238 314L422 532L490 532L263 272L390 0L330 0L225 230L32 0L-35 0Z"  horiz-adv-x="469" vert-adv-y="1000"  />

      
      <glyph glyph-name="uni79" unicode="&#x79;" d="M-41-242Q-63-242-77-239Q-91-236-104-232L-104-183Q-91-188-76.50-190.50Q-62-193-43-193Q-5-193 24.50-166.50Q54-140 84-86L134 0L49 532L106 532L153 221Q160 174 164 127.50Q168 81 170 54L172 54Q179 70 191 95.50Q203 121 217.50 150.50Q232 180 246 205L426 532L487 532L136-102Q98-170 58-206Q18-242-41-242Z"  horiz-adv-x="438" vert-adv-y="1000"  />

      
      <glyph glyph-name="uni7a" unicode="&#x7a;" d="M-14 0L-7 38L360 486L104 486L114 532L438 532L429 489L63 45L347 45L338 0L-14 0Z"  horiz-adv-x="440" vert-adv-y="1000"  />

      
      <glyph glyph-name="uni7b" unicode="&#x7b;" d="M208-158Q138-158 104-133.50Q70-109 70-54Q70-40 72.50-26Q75-12 78 4L109 142Q112 156 114 168Q116 180 116 190Q116 257 19 257L30 306Q89 306 121 329.50Q153 353 165 411L200 576Q216 650 259 682Q302 714 379 714L391 714L381 665Q328 664 296.50 644Q265 624 253 568L218 406Q207 355 181 322Q155 289 104 280L104 278Q138 268 153 245Q168 222 168 188Q168 176 166.50 161.50Q165 147 161 133L132-2Q129-15 127-26Q125-37 125-46Q125-84 148.50-96.50Q172-109 218-109L218-158L208-158Z"  horiz-adv-x="338" vert-adv-y="1000"  />

      
      <glyph glyph-name="uni7c" unicode="&#x7c;" d="M271-241L271 760L320 760L320-241L271-241Z"  horiz-adv-x="543" vert-adv-y="1000"  />

      
      <glyph glyph-name="uni7d" unicode="&#x7d;" d="M-44-158L-41-110Q14-109 47-88.50Q80-68 92-13L127 150Q138 201 164 234Q190 267 240 276L240 278Q176 297 176 367Q176 379 178.50 393Q181 407 184 422L214 557Q220 582 220 602Q220 640 195.50 652Q171 664 121 664L128 714L136 714Q206 714 240 689Q274 664 274 609Q274 585 266 551L236 414Q233 400 230.50 388Q228 376 228 366Q228 298 325 298L314 250Q256 250 224 226Q192 202 180 144L144-20Q128-98 84-128Q40-158-37-158L-44-158Z"  horiz-adv-x="338" vert-adv-y="1000"  />

      
      <glyph glyph-name="uni7e" unicode="&#x7e;" d="M296 330Q264 345 240 352.50Q216 360 188 360Q128 360 73 302L73 357Q96 381 127 394.50Q158 408 192 408Q226 408 253.50 400Q281 392 318 375Q350 361 373.50 353.50Q397 346 423 346Q451 346 481 360Q511 374 538 402L538 350Q516 326 486 312Q456 298 420 298Q388 298 361 306Q334 314 296 330Z"  horiz-adv-x="571" vert-adv-y="1000"  />

      
      <glyph glyph-name="unia1" unicode="&#xa1;" d="M162 442Q144 442 134.50 452.50Q125 463 125 480Q125 502 138 521.50Q151 541 178 541Q214 541 214 503Q214 481 201 461.50Q188 442 162 442M-7-182L118 342L160 342L60-182L-7-182Z"  horiz-adv-x="236" vert-adv-y="1000"  />

      
      <glyph glyph-name="unia2" unicode="&#xa2;" d="M229-10L250 94Q183 108 145 159Q107 210 107 288Q107 378 138 455.50Q169 533 225.50 582.50Q282 632 361 640L378 724L422 724L404 640Q434 638 462.50 632Q491 626 514 616L498 567Q476 578 446 585Q416 592 386 592Q320 592 270.50 551Q221 510 193.50 441.50Q166 373 166 290Q166 222 202.50 180Q239 138 304 138Q338 138 370 146Q402 154 434 169L434 120Q401 103 367 96.50Q333 90 294 89L274-10L229-10Z"  horiz-adv-x="550" vert-adv-y="1000"  />

      
      <glyph glyph-name="unia3" unicode="&#xa3;" d="M-8 0L1 48Q53 58 88 94Q123 130 138 200L165 326L66 326L75 371L175 371L209 534Q231 633 284 678Q337 723 418 723Q464 723 502.50 711.50Q541 700 568 686L544 640Q521 651 489 662.50Q457 674 417 674Q359 674 320 640Q281 606 264 524L232 371L415 371L406 326L222 326L194 199Q180 134 155 101Q130 68 95 52L462 52L451 0L-8 0Z"  horiz-adv-x="550" vert-adv-y="1000"  />

      
      <glyph glyph-name="unia4" unicode="&#xa4;" d="M488 132L418 202Q364 161 298 161Q231 161 178 203L108 133L78 164L148 234Q106 285 106 354Q106 386 116.50 416Q127 446 148 472L78 543L108 575L178 504Q229 546 298 546Q367 546 418 504L488 574L519 543L449 473Q491 420 491 354Q491 287 449 234L519 164L488 132M298 206Q339 206 373 226Q407 246 427.50 279.50Q448 313 448 354Q448 395 428 428.50Q408 462 374 482Q340 502 298 502Q257 502 223.50 482Q190 462 170 428.50Q150 395 150 354Q150 312 170 278.50Q190 245 223.50 225.50Q257 206 298 206Z"  horiz-adv-x="560" vert-adv-y="1000"  />

      
      <glyph glyph-name="unia5" unicode="&#xa5;" d="M188 0L218 145L65 145L75 191L228 191L248 285L94 285L104 331L238 331L118 714L174 714L284 345L550 714L614 714L332 331L466 331L456 285L302 285L282 191L436 191L426 145L273 145L242 0L188 0Z"  horiz-adv-x="550" vert-adv-y="1000"  />

      
      <glyph glyph-name="unia6" unicode="&#xa6;" d="M271 387L271 760L320 760L320 387L271 387M271-240L271 133L320 133L320-240L271-240Z"  horiz-adv-x="543" vert-adv-y="1000"  />

      
      <glyph glyph-name="unia7" unicode="&#xa7;" d="M174-3Q126-3 88 7Q50 17 28 29L28 81Q56 66 95.50 54Q135 42 174 42Q246 42 285.50 68Q325 94 325 142Q325 176 296.50 196Q268 216 218 238Q185 253 156.50 271.50Q128 290 111 316Q94 342 94 381Q94 422 113 450Q132 478 161 496Q190 514 220 525Q193 539 172.50 563.50Q152 588 152 626Q152 670 177 700.50Q202 731 243.50 746.50Q285 762 336 762Q380 762 420 753Q460 744 488 730L469 687Q439 700 404 708Q369 716 336 716Q306 716 276.50 707.50Q247 699 227 679.50Q207 660 207 627Q207 596 233.50 576Q260 556 312 534Q344 520 373 503Q402 486 420 460.50Q438 435 438 396Q438 342 403.50 302Q369 262 324 239Q348 223 364 202Q380 181 380 147Q380 76 326 36.50Q272-3 174-3M288 260Q326 281 355 313Q384 345 384 390Q384 429 354 451Q324 473 260 501Q234 494 207.50 480Q181 466 163.50 443Q146 420 146 386Q146 357 161 337Q176 317 207.50 299.50Q239 282 288 260Z"  horiz-adv-x="492" vert-adv-y="1000"  />

      
      <glyph glyph-name="unia8" unicode="&#xa8;" d="M450 639Q420 639 420 670Q420 688 430 704Q440 720 461 720Q477 720 484 711Q491 702 491 689Q491 669 479.50 654Q468 639 450 639M273 639Q242 639 242 670Q242 688 252 704Q262 720 283 720Q299 720 306 711Q313 702 313 689Q313 669 301.50 654Q290 639 273 639Z"  horiz-adv-x="564" vert-adv-y="1000"  />

      
      <glyph glyph-name="unia9" unicode="&#xa9;" d="M416-9Q336-9 269 19Q202 47 153 96.50Q104 146 77 212.50Q50 279 50 357Q50 436 78 503Q106 570 156 619Q206 668 272.50 695.50Q339 723 416 723Q494 723 560.50 694.50Q627 666 677 615.50Q727 565 754.50 498.50Q782 432 782 357Q782 279 754 212.50Q726 146 676.50 96.50Q627 47 560.50 19Q494-9 416-9M416 30Q485 30 544 55Q603 80 647 125Q691 170 716 229.50Q741 289 741 357Q741 424 717 483Q693 542 649 587Q605 632 545.50 658Q486 684 416 684Q346 684 286.50 659.50Q227 635 183 590.50Q139 546 114.50 486.50Q90 427 90 357Q90 290 113.50 231Q137 172 181 126.50Q225 81 284.50 55.50Q344 30 416 30M433 138Q338 138 285 195Q232 252 232 356Q232 422 257 471.50Q282 521 328 548.50Q374 576 437 576Q474 576 504.50 569Q535 562 562 548L542 506Q494 530 438 530Q368 530 326 483.50Q284 437 284 356Q284 271 324 227Q364 183 435 183Q464 183 490.50 188.50Q517 194 545 204L545 160Q520 150 494 144Q468 138 433 138Z"  horiz-adv-x="832" vert-adv-y="1000"  />

      
      <glyph glyph-name="uniaa" unicode="&#xaa;" d="M177 390Q138 390 112 418Q86 446 86 500Q86 559 106 609.50Q126 660 162 691Q198 722 245 722Q278 722 296.50 705Q315 688 323 666L326 666L343 716L376 716L308 396L274 396L284 460L282 460Q263 431 237.50 410.50Q212 390 177 390M186 430Q213 430 235 447Q257 464 273.50 491Q290 518 298.50 549Q307 580 307 608Q307 640 292 662Q277 684 245 684Q214 684 187.50 659.50Q161 635 145 593.50Q129 552 129 503Q129 468 144.50 449Q160 430 186 430Z"  horiz-adv-x="330" vert-adv-y="1000"  />

      
      <glyph glyph-name="uniab" unicode="&#xab;" d="M140 70L31 272L32 284L220 472L250 442L92 272L179 88L140 70M315 70L210 262L212 275L394 469L425 442L270 263L354 88L315 70Z"  horiz-adv-x="424" vert-adv-y="1000"  />

      
      <glyph glyph-name="uniac" unicode="&#xac;" d="M529 376L529 130L482 130L482 329L72 329L72 376L529 376Z"  horiz-adv-x="571" vert-adv-y="1000"  />

      
      <glyph glyph-name="uniad" unicode="&#xad;" d="M31 243L43 296L276 296L265 243L31 243Z"  horiz-adv-x="308" vert-adv-y="1000"  />

      
      <glyph glyph-name="uniae" unicode="&#xae;" d="M416-9Q336-9 269 19Q202 47 153 96.50Q104 146 77 212.50Q50 279 50 357Q50 436 78 503Q106 570 156 619Q206 668 272.50 695.50Q339 723 416 723Q494 723 560.50 694.50Q627 666 677 615.50Q727 565 754.50 498.50Q782 432 782 357Q782 279 754 212.50Q726 146 676.50 96.50Q627 47 560.50 19Q494-9 416-9M416 30Q485 30 544 55Q603 80 647 125Q691 170 716 229.50Q741 289 741 357Q741 424 717 483Q693 542 649 587Q605 632 545.50 658Q486 684 416 684Q346 684 286.50 659.50Q227 635 183 590.50Q139 546 114.50 486.50Q90 427 90 357Q90 290 113.50 231Q137 172 181 126.50Q225 81 284.50 55.50Q344 30 416 30M288 140L288 572L412 572Q483 572 521.50 541.50Q560 511 560 448Q560 400 535 371Q510 342 475 330L590 140L531 140L426 318L339 318L339 140L288 140M338 360L408 360Q453 360 481.50 382Q510 404 510 446Q510 490 483 509Q456 528 409 528L338 528L338 360Z"  horiz-adv-x="832" vert-adv-y="1000"  />

      
      <glyph glyph-name="uniaf" unicode="&#xaf;" d="M101 760L112 806L506 806L495 760L101 760Z"  horiz-adv-x="436" vert-adv-y="1000"  />

      
      <glyph glyph-name="unib0" unicode="&#xb0;" d="M214 429Q148 429 105.50 469.50Q63 510 63 576Q63 642 104.50 683Q146 724 214 724Q280 724 322.50 683Q365 642 365 576Q365 510 322.50 469.50Q280 429 214 429M214 471Q264 471 291.50 500.50Q319 530 319 576Q319 624 290.50 653Q262 682 214 682Q163 682 136 653Q109 624 109 576Q109 530 136 500.50Q163 471 214 471Z"  horiz-adv-x="428" vert-adv-y="1000"  />

      
      <glyph glyph-name="unib1" unicode="&#xb1;" d="M329 378L538 378L538 331L329 331L329 119L281 119L281 331L72 331L72 378L281 378L281 591L329 591L329 378M72 0L72 47L538 47L538 0L72 0Z"  horiz-adv-x="571" vert-adv-y="1000"  />

      
      <glyph glyph-name="unib2" unicode="&#xb2;" d="M60 416L68 454L204 570Q272 627 305.50 666Q339 705 339 750Q339 778 321.50 795Q304 812 272 812Q245 812 219 802.50Q193 793 166 772L144 806Q206 854 278 854Q334 854 361 824.50Q388 795 388 756Q388 700 352 655Q316 610 245 552L133 459L342 459L334 416L60 416Z"  horiz-adv-x="332" vert-adv-y="1000"  />

      
      <glyph glyph-name="unib3" unicode="&#xb3;" d="M184 410Q151 410 121.50 417.50Q92 425 70 436L70 483Q96 469 125 460.50Q154 452 185 452Q241 452 273.50 477Q306 502 306 550Q306 583 281 601.50Q256 620 210 620L164 620L172 660L218 660Q269 660 303.50 682Q338 704 338 748Q338 778 320 795Q302 812 268 811Q236 810 210 801Q184 792 159 776L140 810Q167 829 200.50 840.50Q234 852 274 852Q328 852 357 825.50Q386 799 386 756Q386 707 358 679Q330 651 286 640L286 638Q318 630 336 606Q354 582 354 548Q354 483 309 446.50Q264 410 184 410Z"  horiz-adv-x="332" vert-adv-y="1000"  />

      
      <glyph glyph-name="unib4" unicode="&#xb4;" d="M114 606L114 616Q134 635 158 661.50Q182 688 204 716Q226 744 240 766L305 766L305 758Q290 738 263.50 710Q237 682 207.50 654Q178 626 152 606L114 606Z"  horiz-adv-x="240" vert-adv-y="1000"  />

      
      <glyph glyph-name="uni03BC" unicode="&#x03BC;" d="M-19-236L143 532L201 532L129 192Q124 168 122 152Q120 136 120 125Q120 87 143 63Q166 39 211 39Q253 39 297 65Q341 91 377 145Q413 199 431 284L485 532L541 532L428 0L381 0L401 119L397 119Q378 88 350 58.50Q322 29 284.50 9.50Q247-10 199-10Q157-10 132.50 8.50Q108 27 97 55L94 55Q90 29 82.50-11Q75-51 68-86L37-236L-19-236Z"  horiz-adv-x="574" vert-adv-y="1000"  />

      
      <glyph glyph-name="unib6" unicode="&#xb6;" d="M366-127L366 314Q350 310 333.50 307.50Q317 305 295 305Q207 305 158.50 362.50Q110 420 110 533Q110 652 162.50 706Q215 760 310 760L568 760L568-127L526-127L526 708L408 708L408-127L366-127Z"  horiz-adv-x="655" vert-adv-y="1000"  />

      
      <glyph glyph-name="unib7" unicode="&#xb7;" d="M126 284Q88 284 88 321Q88 344 101 363Q114 382 142 382Q177 382 177 345Q177 323 164.50 303.50Q152 284 126 284Z"  horiz-adv-x="233" vert-adv-y="1000"  />

      
      <glyph glyph-name="unib8" unicode="&#xb8;" d="M-35-240Q-66-240-85-234L-85-196Q-64-202-40-202Q-5-202 22-186Q49-170 49-136Q49-91-27-86L21 0L62 0L30-61Q58-66 78-84Q98-102 98-136Q98-183 60.50-211.50Q23-240-35-240Z"  horiz-adv-x="199" vert-adv-y="1000"  />

      
      <glyph glyph-name="unib9" unicode="&#xb9;" d="M191 416L247 680Q252 707 260 738.50Q268 770 276 795Q262 786 248 776Q234 766 216 756L165 726L146 761L290 844L331 844L240 416L191 416Z"  horiz-adv-x="332" vert-adv-y="1000"  />

      
      <glyph glyph-name="uniba" unicode="&#xba;" d="M206 389Q154 389 122 422.50Q90 456 90 516Q90 572 110.50 619.50Q131 667 168.50 695.50Q206 724 257 724Q316 724 344 688Q372 652 372 598Q372 544 353 496Q334 448 297 418.50Q260 389 206 389M209 428Q246 428 272.50 451.50Q299 475 313.50 513.50Q328 552 328 596Q328 638 309 661Q290 684 255 684Q218 684 190.50 661.50Q163 639 148 601.50Q133 564 133 517Q133 474 152.50 451Q172 428 209 428Z"  horiz-adv-x="346" vert-adv-y="1000"  />

      
      <glyph glyph-name="unibb" unicode="&#xbb;" d="M206 70L176 100L334 270L247 454L286 472L395 270L394 256L206 70M32 74L1 100L156 278L72 454L111 472L216 280L214 266L32 74Z"  horiz-adv-x="424" vert-adv-y="1000"  />

      
      <glyph glyph-name="unibc" unicode="&#xbc;" d="M81 0L611 714L668 714L137 0L81 0M161 287L217 551Q222 578 230 609.50Q238 641 246 666Q232 657 218 647Q204 637 186 627L135 597L116 632L260 715L301 715L210 287L161 287M522 1L545 108L358 108L367 148L613 432L661 432L601 150L665 150L656 108L591 108L569 1L522 1M419 150L553 150L577 256Q583 284 589 313.50Q595 343 602 367Q594 354 573.50 329.50Q553 305 535 285L419 150Z"  horiz-adv-x="702" vert-adv-y="1000"  />

      
      <glyph glyph-name="unibd" unicode="&#xbd;" d="M78 0L608 714L665 714L134 0L78 0M161 287L217 551Q222 578 230 609.50Q238 641 246 666Q232 657 218 647Q204 637 186 627L135 597L116 632L260 715L301 715L210 287L161 287M402 1L410 39L546 155Q614 212 647.50 251Q681 290 681 335Q681 363 663.50 380Q646 397 614 397Q587 397 561 387.50Q535 378 508 357L486 391Q548 439 620 439Q676 439 703 409.50Q730 380 730 341Q730 285 694 240Q658 195 587 137L475 44L684 44L676 1L402 1Z"  horiz-adv-x="759" vert-adv-y="1000"  />

      
      <glyph glyph-name="unibe" unicode="&#xbe;" d="M152 279Q119 279 89.50 286.50Q60 294 38 305L38 352Q64 338 93 329.50Q122 321 153 321Q209 321 241.50 346Q274 371 274 419Q274 452 249 470.50Q224 489 178 489L132 489L140 529L186 529Q237 529 271.50 551Q306 573 306 617Q306 647 288 664Q270 681 236 680Q204 679 178 670Q152 661 127 645L108 679Q135 698 168.50 709.50Q202 721 242 721Q296 721 325 694.50Q354 668 354 625Q354 576 326 548Q298 520 254 509L254 507Q286 499 304 475Q322 451 322 417Q322 352 277 315.50Q232 279 152 279M131 0L661 714L718 714L187 0L131 0M561 1L584 108L397 108L406 148L652 432L700 432L640 150L704 150L695 108L630 108L608 1L561 1M458 150L592 150L616 256Q622 284 628 313.50Q634 343 641 367Q633 354 612.50 329.50Q592 305 574 285L458 150Z"  horiz-adv-x="740" vert-adv-y="1000"  />

      
      <glyph glyph-name="unibf" unicode="&#xbf;" d="M300 344Q292 294 276 261Q260 228 235 202Q210 176 173 148Q140 123 110.50 98.50Q81 74 62.50 44Q44 14 44-30Q44-82 74-112Q104-142 157-142Q191-142 225.50-131.50Q260-121 295-105L316-150Q232-192 152-192Q76-192 31-150.50Q-14-109-14-36Q-14 12 4 48.50Q22 85 55.50 116.50Q89 148 134 180Q169 206 192.50 227Q216 248 230 275Q244 302 252 344L300 344M308 543Q345 543 345 506Q345 483 332 464Q319 445 292 445Q256 445 256 482Q256 504 269 523.50Q282 543 308 543Z"  horiz-adv-x="416" vert-adv-y="1000"  />

      
      <glyph glyph-name="unic0" unicode="&#xc0;" d="M-54 0L350 715L408 715L506 0L449 0L415 246L148 246L10 0L-54 0M176 299L408 299L379 523Q375 552 372.50 586Q370 620 368 650L365 650Q351 619 334.50 586Q318 553 300 521L176 299M398 788Q381 806 360.50 834Q340 862 322 890Q304 918 294 938L294 948L356 948Q369 910 391.50 869Q414 828 432 800L432 788L398 788Z"  horiz-adv-x="554" vert-adv-y="1000"  />

      
      <glyph glyph-name="unic1" unicode="&#xc1;" d="M-54 0L350 715L408 715L506 0L449 0L415 246L148 246L10 0L-54 0M176 299L408 299L379 523Q375 552 372.50 586Q370 620 368 650L365 650Q351 619 334.50 586Q318 553 300 521L176 299M350 788L350 798Q370 817 394 843.50Q418 870 440 898Q462 926 476 948L541 948L541 940Q526 920 499.50 892Q473 864 443.50 836Q414 808 388 788L350 788Z"  horiz-adv-x="554" vert-adv-y="1000"  />

      
      <glyph glyph-name="unic2" unicode="&#xc2;" d="M-54 0L350 715L408 715L506 0L449 0L415 246L148 246L10 0L-54 0M176 299L408 299L379 523Q375 552 372.50 586Q370 620 368 650L365 650Q351 619 334.50 586Q318 553 300 521L176 299M247 788L247 798Q267 816 294 842.50Q321 869 347 896.50Q373 924 388 946L441 946Q455 912 478.50 870Q502 828 522 798L521 788L485 788Q465 810 445 839Q425 868 409 896Q381 868 348.50 839Q316 810 287 788L247 788Z"  horiz-adv-x="554" vert-adv-y="1000"  />

      
      <glyph glyph-name="unic3" unicode="&#xc3;" d="M-54 0L350 715L408 715L506 0L449 0L415 246L148 246L10 0L-54 0M176 299L408 299L379 523Q375 552 372.50 586Q370 620 368 650L365 650Q351 619 334.50 586Q318 553 300 521L176 299M230 794Q243 850 268.50 878.50Q294 907 336 907Q358 907 377 897Q396 887 412.50 874.50Q429 862 444 852Q459 842 474 842Q495 842 510.50 856Q526 870 539 908L579 908Q564 852 538 823Q512 794 470 794Q449 794 431 803.50Q413 813 397 826Q381 839 365 848.50Q349 858 332 858Q311 858 295.50 844Q280 830 268 794L230 794Z"  horiz-adv-x="554" vert-adv-y="1000"  />

      
      <glyph glyph-name="unic4" unicode="&#xc4;" d="M-54 0L350 715L408 715L506 0L449 0L415 246L148 246L10 0L-54 0M176 299L408 299L379 523Q375 552 372.50 586Q370 620 368 650L365 650Q351 619 334.50 586Q318 553 300 521L176 299M484 821Q454 821 454 852Q454 870 464 886Q474 902 495 902Q511 902 518 893Q525 884 525 871Q525 851 513.50 836Q502 821 484 821M307 821Q276 821 276 852Q276 870 286 886Q296 902 317 902Q333 902 340 893Q347 884 347 871Q347 851 335.50 836Q324 821 307 821Z"  horiz-adv-x="554" vert-adv-y="1000"  />

      
      <glyph glyph-name="unic5" unicode="&#xc5;" d="M-54 0L350 715L408 715L506 0L449 0L415 246L148 246L10 0L-54 0M176 299L408 299L379 523Q375 552 372.50 586Q370 620 368 650L365 650Q351 619 334.50 586Q318 553 300 521L176 299M394 739Q349 739 319 767Q289 795 289 842Q289 888 319.50 916Q350 944 394 944Q438 944 468 916Q498 888 498 843Q498 795 468 767Q438 739 394 739M394 777Q422 777 441 795Q460 813 460 842Q460 871 440.50 889Q421 907 394 907Q366 907 347 889Q328 871 328 842Q328 813 346 795Q364 777 394 777Z"  horiz-adv-x="554" vert-adv-y="1000"  />

      
      <glyph glyph-name="unic6" unicode="&#xc6;" d="M-54 0L395 714L840 714L830 662L522 662L466 400L756 400L746 349L456 349L394 52L700 52L690 0L324 0L376 246L165 246L12 0L-54 0M198 298L386 298L464 662L424 662L198 298Z"  horiz-adv-x="804" vert-adv-y="1000"  />

      
      <glyph glyph-name="unic7" unicode="&#xc7;" d="M326-10Q209-10 143.50 64.50Q78 139 78 266Q78 358 104.50 440.50Q131 523 181.50 586.50Q232 650 303.50 687Q375 724 464 724Q562 724 632 686L608 636Q546 672 464 672Q389 672 328.50 640Q268 608 225.50 552Q183 496 160.50 423Q138 350 138 268Q138 163 190 102.50Q242 42 334 42Q380 42 421 50Q462 58 500 71L500 20Q464 7 422-1.50Q380-10 326-10M233-240Q202-240 183-234L183-196Q204-202 228-202Q263-202 290-186Q317-170 317-136Q317-91 241-86L289 0L330 0L298-61Q326-66 346-84Q366-102 366-136Q366-183 328.50-211.50Q291-240 233-240Z"  horiz-adv-x="590" vert-adv-y="1000"  />

      
      <glyph glyph-name="unic8" unicode="&#xc8;" d="M46 0L196 714L556 714L546 662L244 662L188 400L472 400L462 349L178 349L114 52L416 52L406 0L46 0M398 788Q381 806 360.50 834Q340 862 322 890Q304 918 294 938L294 948L356 948Q369 910 391.50 869Q414 828 432 800L432 788L398 788Z"  horiz-adv-x="524" vert-adv-y="1000"  />

      
      <glyph glyph-name="unic9" unicode="&#xc9;" d="M46 0L196 714L556 714L546 662L244 662L188 400L472 400L462 349L178 349L114 52L416 52L406 0L46 0M344 788L344 798Q364 817 388 843.50Q412 870 434 898Q456 926 470 948L535 948L535 940Q520 920 493.50 892Q467 864 437.50 836Q408 808 382 788L344 788Z"  horiz-adv-x="524" vert-adv-y="1000"  />

      
      <glyph glyph-name="unica" unicode="&#xca;" d="M46 0L196 714L556 714L546 662L244 662L188 400L472 400L462 349L178 349L114 52L416 52L406 0L46 0M249 788L249 798Q269 816 296 842.50Q323 869 349 896.50Q375 924 390 946L443 946Q457 912 480.50 870Q504 828 524 798L523 788L487 788Q467 810 447 839Q427 868 411 896Q383 868 350.50 839Q318 810 289 788L249 788Z"  horiz-adv-x="524" vert-adv-y="1000"  />

      
      <glyph glyph-name="unicb" unicode="&#xcb;" d="M46 0L196 714L556 714L546 662L244 662L188 400L472 400L462 349L178 349L114 52L416 52L406 0L46 0M488 821Q458 821 458 852Q458 870 468 886Q478 902 499 902Q515 902 522 893Q529 884 529 871Q529 851 517.50 836Q506 821 488 821M311 821Q280 821 280 852Q280 870 290 886Q300 902 321 902Q337 902 344 893Q351 884 351 871Q351 851 339.50 836Q328 821 311 821Z"  horiz-adv-x="524" vert-adv-y="1000"  />

      
      <glyph glyph-name="unicc" unicode="&#xcc;" d="M-6 0L1 34L76 46L208 668L138 679L145 714L349 714L342 679L266 668L133 46L205 34L198 0L-6 0M273 788Q256 806 235.50 834Q215 862 197 890Q179 918 169 938L169 948L231 948Q244 910 266.50 869Q289 828 307 800L307 788L273 788Z"  horiz-adv-x="302" vert-adv-y="1000"  />

      
      <glyph glyph-name="unicd" unicode="&#xcd;" d="M-6 0L1 34L76 46L208 668L138 679L145 714L349 714L342 679L266 668L133 46L205 34L198 0L-6 0M218 788L218 798Q238 817 262 843.50Q286 870 308 898Q330 926 344 948L409 948L409 940Q394 920 367.50 892Q341 864 311.50 836Q282 808 256 788L218 788Z"  horiz-adv-x="302" vert-adv-y="1000"  />

      
      <glyph glyph-name="unice" unicode="&#xce;" d="M-6 0L1 34L76 46L208 668L138 679L145 714L349 714L342 679L266 668L133 46L205 34L198 0L-6 0M116 788L116 798Q136 816 163 842.50Q190 869 216 896.50Q242 924 257 946L310 946Q324 912 347.50 870Q371 828 391 798L390 788L354 788Q334 810 314 839Q294 868 278 896Q250 868 217.50 839Q185 810 156 788L116 788Z"  horiz-adv-x="302" vert-adv-y="1000"  />

      
      <glyph glyph-name="unicf" unicode="&#xcf;" d="M-6 0L1 34L76 46L208 668L138 679L145 714L349 714L342 679L266 668L133 46L205 34L198 0L-6 0M355 821Q325 821 325 852Q325 870 335 886Q345 902 366 902Q382 902 389 893Q396 884 396 871Q396 851 384.50 836Q373 821 355 821M178 821Q147 821 147 852Q147 870 157 886Q167 902 188 902Q204 902 211 893Q218 884 218 871Q218 851 206.50 836Q195 821 178 821Z"  horiz-adv-x="302" vert-adv-y="1000"  />

      
      <glyph glyph-name="unid0" unicode="&#xd0;" d="M46 0L114 329L38 329L50 380L126 380L196 714L354 714Q486 714 561 643Q636 572 636 427Q636 340 609 262.50Q582 185 528 126Q474 67 393.50 33.50Q313 0 206 0L46 0M114 51L210 51Q300 51 368 80.50Q436 110 482.50 162Q529 214 552.50 282Q576 350 576 428Q576 550 514 606.50Q452 663 343 663L244 663L184 380L360 380L348 329L173 329L114 51Z"  horiz-adv-x="672" vert-adv-y="1000"  />

      
      <glyph glyph-name="unid1" unicode="&#xd1;" d="M45 0L196 714L253 714L504 89L506 89Q512 126 521 174.50Q530 223 540 266L635 714L690 714L540 0L482 0L230 626L228 626Q222 588 213 540Q204 492 194 445L100 0L45 0M304 794Q317 850 342.50 878.50Q368 907 410 907Q432 907 451 897Q470 887 486.50 874.50Q503 862 518 852Q533 842 548 842Q569 842 584.50 856Q600 870 613 908L653 908Q638 852 612 823Q586 794 544 794Q523 794 505 803.50Q487 813 471 826Q455 839 439 848.50Q423 858 406 858Q385 858 369.50 844Q354 830 342 794L304 794Z"  horiz-adv-x="690" vert-adv-y="1000"  />

      
      <glyph glyph-name="unid2" unicode="&#xd2;" d="M336-10Q247-10 190 26.50Q133 63 105.50 126.50Q78 190 78 272Q78 359 100.50 440Q123 521 168 585.50Q213 650 279 687.50Q345 725 432 725Q548 725 615.50 653.50Q683 582 683 445Q683 385 671 321Q659 257 633 198Q607 139 566 92Q525 45 468 17.50Q411-10 336-10M338 42Q412 42 465.50 79Q519 116 554 176.50Q589 237 605.50 307.50Q622 378 622 446Q622 552 572.50 612.50Q523 673 428 673Q354 673 299.50 638Q245 603 209.50 544.50Q174 486 156.50 415.50Q139 345 139 273Q139 168 188.50 105Q238 42 338 42M472 788Q455 806 434.50 834Q414 862 396 890Q378 918 368 938L368 948L430 948Q443 910 465.50 869Q488 828 506 800L506 788L472 788Z"  horiz-adv-x="718" vert-adv-y="1000"  />

      
      <glyph glyph-name="unid3" unicode="&#xd3;" d="M336-10Q247-10 190 26.50Q133 63 105.50 126.50Q78 190 78 272Q78 359 100.50 440Q123 521 168 585.50Q213 650 279 687.50Q345 725 432 725Q548 725 615.50 653.50Q683 582 683 445Q683 385 671 321Q659 257 633 198Q607 139 566 92Q525 45 468 17.50Q411-10 336-10M338 42Q412 42 465.50 79Q519 116 554 176.50Q589 237 605.50 307.50Q622 378 622 446Q622 552 572.50 612.50Q523 673 428 673Q354 673 299.50 638Q245 603 209.50 544.50Q174 486 156.50 415.50Q139 345 139 273Q139 168 188.50 105Q238 42 338 42M418 788L418 798Q438 817 462 843.50Q486 870 508 898Q530 926 544 948L609 948L609 940Q594 920 567.50 892Q541 864 511.50 836Q482 808 456 788L418 788Z"  horiz-adv-x="718" vert-adv-y="1000"  />

      
      <glyph glyph-name="unid4" unicode="&#xd4;" d="M336-10Q247-10 190 26.50Q133 63 105.50 126.50Q78 190 78 272Q78 359 100.50 440Q123 521 168 585.50Q213 650 279 687.50Q345 725 432 725Q548 725 615.50 653.50Q683 582 683 445Q683 385 671 321Q659 257 633 198Q607 139 566 92Q525 45 468 17.50Q411-10 336-10M338 42Q412 42 465.50 79Q519 116 554 176.50Q589 237 605.50 307.50Q622 378 622 446Q622 552 572.50 612.50Q523 673 428 673Q354 673 299.50 638Q245 603 209.50 544.50Q174 486 156.50 415.50Q139 345 139 273Q139 168 188.50 105Q238 42 338 42M316 788L316 798Q336 816 363 842.50Q390 869 416 896.50Q442 924 457 946L510 946Q524 912 547.50 870Q571 828 591 798L590 788L554 788Q534 810 514 839Q494 868 478 896Q450 868 417.50 839Q385 810 356 788L316 788Z"  horiz-adv-x="718" vert-adv-y="1000"  />

      
      <glyph glyph-name="unid5" unicode="&#xd5;" d="M336-10Q247-10 190 26.50Q133 63 105.50 126.50Q78 190 78 272Q78 359 100.50 440Q123 521 168 585.50Q213 650 279 687.50Q345 725 432 725Q548 725 615.50 653.50Q683 582 683 445Q683 385 671 321Q659 257 633 198Q607 139 566 92Q525 45 468 17.50Q411-10 336-10M338 42Q412 42 465.50 79Q519 116 554 176.50Q589 237 605.50 307.50Q622 378 622 446Q622 552 572.50 612.50Q523 673 428 673Q354 673 299.50 638Q245 603 209.50 544.50Q174 486 156.50 415.50Q139 345 139 273Q139 168 188.50 105Q238 42 338 42M301 794Q314 850 339.50 878.50Q365 907 407 907Q429 907 448 897Q467 887 483.50 874.50Q500 862 515 852Q530 842 545 842Q566 842 581.50 856Q597 870 610 908L650 908Q635 852 609 823Q583 794 541 794Q520 794 502 803.50Q484 813 468 826Q452 839 436 848.50Q420 858 403 858Q382 858 366.50 844Q351 830 339 794L301 794Z"  horiz-adv-x="718" vert-adv-y="1000"  />

      
      <glyph glyph-name="unid6" unicode="&#xd6;" d="M336-10Q247-10 190 26.50Q133 63 105.50 126.50Q78 190 78 272Q78 359 100.50 440Q123 521 168 585.50Q213 650 279 687.50Q345 725 432 725Q548 725 615.50 653.50Q683 582 683 445Q683 385 671 321Q659 257 633 198Q607 139 566 92Q525 45 468 17.50Q411-10 336-10M338 42Q412 42 465.50 79Q519 116 554 176.50Q589 237 605.50 307.50Q622 378 622 446Q622 552 572.50 612.50Q523 673 428 673Q354 673 299.50 638Q245 603 209.50 544.50Q174 486 156.50 415.50Q139 345 139 273Q139 168 188.50 105Q238 42 338 42M555 821Q525 821 525 852Q525 870 535 886Q545 902 566 902Q582 902 589 893Q596 884 596 871Q596 851 584.50 836Q573 821 555 821M378 821Q347 821 347 852Q347 870 357 886Q367 902 388 902Q404 902 411 893Q418 884 418 871Q418 851 406.50 836Q395 821 378 821Z"  horiz-adv-x="718" vert-adv-y="1000"  />

      
      <glyph glyph-name="unid7" unicode="&#xd7;" d="M489 570L522 536L339 353L522 170L488 136L304 318L122 136L88 170L271 353L88 536L122 570L305 386L489 570Z"  horiz-adv-x="571" vert-adv-y="1000"  />

      
      <glyph glyph-name="unid8" unicode="&#xd8;" d="M79-34L42-2L124 93Q100 129 89 174.50Q78 220 78 272Q78 359 100.50 440Q123 521 168 585.50Q213 650 279 687.50Q345 725 432 725Q542 725 606 658L682 746L721 714L638 620Q683 555 683 445Q683 385 671 321Q659 257 633 198Q607 139 566 92Q525 45 468 17.50Q411-10 336-10Q276-10 232 8Q188 26 157 57L79-34M164 142L570 614Q546 642 510.50 658Q475 674 428 674Q354 674 299 639Q244 604 208.50 545.50Q173 487 155.50 416Q138 345 138 273Q138 196 164 142M338 42Q412 42 466 79Q520 116 554.50 176.50Q589 237 605.50 307.50Q622 378 622 446Q622 482 616 514Q610 546 598 570L192 100Q216 73 252 57.50Q288 42 338 42Z"  horiz-adv-x="718" vert-adv-y="1000"  />

      
      <glyph glyph-name="unid9" unicode="&#xd9;" d="M300-10Q196-10 140 41Q84 92 84 186Q84 202 86.50 223Q89 244 94 268L188 714L246 714L152 267Q148 246 145 224.50Q142 203 142 187Q142 117 184 79.50Q226 42 303 42Q398 42 455 95Q512 148 534 254L632 714L690 714L592 248Q565 120 493 55Q421-10 300-10M462 788Q445 806 424.50 834Q404 862 386 890Q368 918 358 938L358 948L420 948Q433 910 455.50 869Q478 828 496 800L496 788L462 788Z"  horiz-adv-x="684" vert-adv-y="1000"  />

      
      <glyph glyph-name="unida" unicode="&#xda;" d="M300-10Q196-10 140 41Q84 92 84 186Q84 202 86.50 223Q89 244 94 268L188 714L246 714L152 267Q148 246 145 224.50Q142 203 142 187Q142 117 184 79.50Q226 42 303 42Q398 42 455 95Q512 148 534 254L632 714L690 714L592 248Q565 120 493 55Q421-10 300-10M404 788L404 798Q424 817 448 843.50Q472 870 494 898Q516 926 530 948L595 948L595 940Q580 920 553.50 892Q527 864 497.50 836Q468 808 442 788L404 788Z"  horiz-adv-x="684" vert-adv-y="1000"  />

      
      <glyph glyph-name="unidb" unicode="&#xdb;" d="M300-10Q196-10 140 41Q84 92 84 186Q84 202 86.50 223Q89 244 94 268L188 714L246 714L152 267Q148 246 145 224.50Q142 203 142 187Q142 117 184 79.50Q226 42 303 42Q398 42 455 95Q512 148 534 254L632 714L690 714L592 248Q565 120 493 55Q421-10 300-10M305 788L305 798Q325 816 352 842.50Q379 869 405 896.50Q431 924 446 946L499 946Q513 912 536.50 870Q560 828 580 798L579 788L543 788Q523 810 503 839Q483 868 467 896Q439 868 406.50 839Q374 810 345 788L305 788Z"  horiz-adv-x="684" vert-adv-y="1000"  />

      
      <glyph glyph-name="unidc" unicode="&#xdc;" d="M300-10Q196-10 140 41Q84 92 84 186Q84 202 86.50 223Q89 244 94 268L188 714L246 714L152 267Q148 246 145 224.50Q142 203 142 187Q142 117 184 79.50Q226 42 303 42Q398 42 455 95Q512 148 534 254L632 714L690 714L592 248Q565 120 493 55Q421-10 300-10M544 821Q514 821 514 852Q514 870 524 886Q534 902 555 902Q571 902 578 893Q585 884 585 871Q585 851 573.50 836Q562 821 544 821M367 821Q336 821 336 852Q336 870 346 886Q356 902 377 902Q393 902 400 893Q407 884 407 871Q407 851 395.50 836Q384 821 367 821Z"  horiz-adv-x="684" vert-adv-y="1000"  />

      
      <glyph glyph-name="unidd" unicode="&#xdd;" d="M162 0L220 270L94 714L152 714L258 328L524 714L590 714L277 270L220 0L162 0M313 788L313 798Q333 817 357 843.50Q381 870 403 898Q425 926 439 948L504 948L504 940Q489 920 462.50 892Q436 864 406.50 836Q377 808 351 788L313 788Z"  horiz-adv-x="497" vert-adv-y="1000"  />

      
      <glyph glyph-name="unide" unicode="&#xde;" d="M46 0L196 714L254 714L228 586L328 586Q434 586 485 539.50Q536 493 536 412Q536 324 497 269Q458 214 388.50 189Q319 164 228 164L138 164L103 0L46 0M148 214L238 214Q306 214 360 233Q414 252 445 295Q476 338 476 410Q476 535 319 535L216 535L148 214Z"  horiz-adv-x="562" vert-adv-y="1000"  />

      
      <glyph glyph-name="unidf" unicode="&#xdf;" d="M-76-240Q-111-240-134-230L-134-180Q-111-190-80-190Q-11-190 10-92L150 566Q171 665 224.50 715Q278 765 371 765Q444 765 485.50 731Q527 697 527 640Q527 600 512 573Q497 546 474 527Q451 508 426 492Q395 471 370.50 448.50Q346 426 346 391Q346 365 368.50 345Q391 325 411 308Q443 280 465.50 248Q488 216 488 168Q488 82 436 36Q384-10 298-10Q253-10 221-1Q189 8 168 21L168 75Q192 60 225 49Q258 38 292 38Q360 38 395 71.50Q430 105 430 162Q430 199 413 222.50Q396 246 368 272Q333 301 311.50 327.50Q290 354 290 388Q290 424 303.50 448Q317 472 338.50 489Q360 506 384 521Q417 542 443.50 567Q470 592 470 636Q470 672 442 694Q414 716 366 716Q297 716 259 677Q221 638 206 566L68-91Q52-164 17-202Q-18-240-76-240Z"  horiz-adv-x="558" vert-adv-y="1000"  />

      
      <glyph glyph-name="unie0" unicode="&#xe0;" d="M195-10Q127-10 88.50 39Q50 88 50 176Q50 244 68 309Q86 374 120.50 427Q155 480 204 511Q253 542 315 542Q356 542 384 525Q412 508 428.50 482.50Q445 457 453 430L456 430L486 532L530 532L418 0L372 0L392 119L389 119Q369 89 340 59Q311 29 274.50 9.50Q238-10 195-10M211 39Q252 39 293.50 69Q335 99 368 150Q401 201 416 265Q424 294 426.50 318Q429 342 429 362Q429 422 399.50 457Q370 492 319 492Q270 492 231 465Q192 438 164.50 392.50Q137 347 122.50 290Q108 233 108 174Q108 110 134.50 74.50Q161 39 211 39M369 606Q352 624 331.50 652Q311 680 293 708Q275 736 265 756L265 766L327 766Q340 728 362.50 687Q385 646 403 618L403 606L369 606Z"  horiz-adv-x="558" vert-adv-y="1000"  />

      
      <glyph glyph-name="unie1" unicode="&#xe1;" d="M195-10Q127-10 88.50 39Q50 88 50 176Q50 244 68 309Q86 374 120.50 427Q155 480 204 511Q253 542 315 542Q356 542 384 525Q412 508 428.50 482.50Q445 457 453 430L456 430L486 532L530 532L418 0L372 0L392 119L389 119Q369 89 340 59Q311 29 274.50 9.50Q238-10 195-10M211 39Q252 39 293.50 69Q335 99 368 150Q401 201 416 265Q424 294 426.50 318Q429 342 429 362Q429 422 399.50 457Q370 492 319 492Q270 492 231 465Q192 438 164.50 392.50Q137 347 122.50 290Q108 233 108 174Q108 110 134.50 74.50Q161 39 211 39M305 606L305 616Q325 635 349 661.50Q373 688 395 716Q417 744 431 766L496 766L496 758Q481 738 454.50 710Q428 682 398.50 654Q369 626 343 606L305 606Z"  horiz-adv-x="558" vert-adv-y="1000"  />

      
      <glyph glyph-name="unie2" unicode="&#xe2;" d="M195-10Q127-10 88.50 39Q50 88 50 176Q50 244 68 309Q86 374 120.50 427Q155 480 204 511Q253 542 315 542Q356 542 384 525Q412 508 428.50 482.50Q445 457 453 430L456 430L486 532L530 532L418 0L372 0L392 119L389 119Q369 89 340 59Q311 29 274.50 9.50Q238-10 195-10M211 39Q252 39 293.50 69Q335 99 368 150Q401 201 416 265Q424 294 426.50 318Q429 342 429 362Q429 422 399.50 457Q370 492 319 492Q270 492 231 465Q192 438 164.50 392.50Q137 347 122.50 290Q108 233 108 174Q108 110 134.50 74.50Q161 39 211 39M209 606L209 616Q229 634 256 660.50Q283 687 309 714.50Q335 742 350 764L403 764Q417 730 440.50 688Q464 646 484 616L483 606L447 606Q427 628 407 657Q387 686 371 714Q343 686 310.50 657Q278 628 249 606L209 606Z"  horiz-adv-x="558" vert-adv-y="1000"  />

      
      <glyph glyph-name="unie3" unicode="&#xe3;" d="M195-10Q127-10 88.50 39Q50 88 50 176Q50 244 68 309Q86 374 120.50 427Q155 480 204 511Q253 542 315 542Q356 542 384 525Q412 508 428.50 482.50Q445 457 453 430L456 430L486 532L530 532L418 0L372 0L392 119L389 119Q369 89 340 59Q311 29 274.50 9.50Q238-10 195-10M211 39Q252 39 293.50 69Q335 99 368 150Q401 201 416 265Q424 294 426.50 318Q429 342 429 362Q429 422 399.50 457Q370 492 319 492Q270 492 231 465Q192 438 164.50 392.50Q137 347 122.50 290Q108 233 108 174Q108 110 134.50 74.50Q161 39 211 39M184 612Q197 668 222.50 696.50Q248 725 290 725Q312 725 331 715Q350 705 366.50 692.50Q383 680 398 670Q413 660 428 660Q449 660 464.50 674Q480 688 493 726L533 726Q518 670 492 641Q466 612 424 612Q403 612 385 621.50Q367 631 351 644Q335 657 319 666.50Q303 676 286 676Q265 676 249.50 662Q234 648 222 612L184 612Z"  horiz-adv-x="558" vert-adv-y="1000"  />

      
      <glyph glyph-name="unie4" unicode="&#xe4;" d="M195-10Q127-10 88.50 39Q50 88 50 176Q50 244 68 309Q86 374 120.50 427Q155 480 204 511Q253 542 315 542Q356 542 384 525Q412 508 428.50 482.50Q445 457 453 430L456 430L486 532L530 532L418 0L372 0L392 119L389 119Q369 89 340 59Q311 29 274.50 9.50Q238-10 195-10M211 39Q252 39 293.50 69Q335 99 368 150Q401 201 416 265Q424 294 426.50 318Q429 342 429 362Q429 422 399.50 457Q370 492 319 492Q270 492 231 465Q192 438 164.50 392.50Q137 347 122.50 290Q108 233 108 174Q108 110 134.50 74.50Q161 39 211 39M448 639Q418 639 418 670Q418 688 428 704Q438 720 459 720Q475 720 482 711Q489 702 489 689Q489 669 477.50 654Q466 639 448 639M271 639Q240 639 240 670Q240 688 250 704Q260 720 281 720Q297 720 304 711Q311 702 311 689Q311 669 299.50 654Q288 639 271 639Z"  horiz-adv-x="558" vert-adv-y="1000"  />

      
      <glyph glyph-name="unie5" unicode="&#xe5;" d="M195-10Q127-10 88.50 39Q50 88 50 176Q50 244 68 309Q86 374 120.50 427Q155 480 204 511Q253 542 315 542Q356 542 384 525Q412 508 428.50 482.50Q445 457 453 430L456 430L486 532L530 532L418 0L372 0L392 119L389 119Q369 89 340 59Q311 29 274.50 9.50Q238-10 195-10M211 39Q252 39 293.50 69Q335 99 368 150Q401 201 416 265Q424 294 426.50 318Q429 342 429 362Q429 422 399.50 457Q370 492 319 492Q270 492 231 465Q192 438 164.50 392.50Q137 347 122.50 290Q108 233 108 174Q108 110 134.50 74.50Q161 39 211 39M358 608Q313 608 283 636Q253 664 253 711Q253 757 283.50 785Q314 813 358 813Q402 813 432 785Q462 757 462 712Q462 664 432 636Q402 608 358 608M358 646Q386 646 405 664Q424 682 424 711Q424 740 404.50 758Q385 776 358 776Q330 776 311 758Q292 740 292 711Q292 682 310 664Q328 646 358 646Z"  horiz-adv-x="558" vert-adv-y="1000"  />

      
      <glyph glyph-name="unie6" unicode="&#xe6;" d="M186-10Q123-10 86.50 38.50Q50 87 50 175Q50 244 68 309.50Q86 375 120 427.50Q154 480 201.50 511Q249 542 308 542Q347 542 372 524.50Q397 507 411 481Q425 455 432 430L435 430L466 532L505 532L484 436Q516 482 562 512Q608 542 672 542Q724 542 761.50 510.50Q799 479 799 423Q799 334 713.50 289Q628 244 478 244L450 244Q449 234 448.50 221Q448 208 448 194Q448 121 484 80Q520 39 591 39Q629 39 663.50 50.50Q698 62 730 76L730 25Q698 9 660-0.50Q622-10 582-10Q522-10 477 18Q432 46 415 106L392 0L352 0L372 116L369 116Q348 83 321.50 54.50Q295 26 261.50 8Q228-10 186-10M459 292L488 292Q560 292 617.50 304.50Q675 317 708.50 345Q742 373 742 418Q742 452 720.50 472.50Q699 493 662 493Q595 493 538.50 440.50Q482 388 459 292M202 39Q244 39 283 69Q322 99 351.50 150.50Q381 202 396 266Q404 296 406.50 318.50Q409 341 409 362Q409 422 384 457Q359 492 314 492Q268 492 230 465Q192 438 164.50 392.50Q137 347 122.50 290.50Q108 234 108 175Q108 110 132.50 74.50Q157 39 202 39Z"  horiz-adv-x="831" vert-adv-y="1000"  />

      
      <glyph glyph-name="unie7" unicode="&#xe7;" d="M247-10Q156-10 104 44Q52 98 52 192Q52 262 71 325.50Q90 389 126 437.50Q162 486 214 514Q266 542 332 542Q404 542 460 517L443 468Q420 478 391 485Q362 492 332 492Q264 492 214.50 451.50Q165 411 137.50 343.50Q110 276 110 194Q110 126 146.50 82.50Q183 39 252 39Q288 39 318.50 47.50Q349 56 380 70L380 20Q354 7 321-1.50Q288-10 247-10M145-240Q114-240 95-234L95-196Q116-202 140-202Q175-202 202-186Q229-170 229-136Q229-91 153-86L201 0L242 0L210-61Q238-66 258-84Q278-102 278-136Q278-183 240.50-211.50Q203-240 145-240Z"  horiz-adv-x="452" vert-adv-y="1000"  />

      
      <glyph glyph-name="unie8" unicode="&#xe8;" d="M244-10Q162-10 108.50 41Q55 92 55 193Q55 261 74.50 323.50Q94 386 130 435.50Q166 485 215.50 513.50Q265 542 324 542Q390 542 427 509.50Q464 477 464 422Q464 334 378 289Q292 244 142 244L116 244Q113 223 113 194Q113 120 149.50 79.50Q186 39 254 39Q294 39 328.50 50Q363 61 395 76L395 26Q365 11 327.50 0.50Q290-10 244-10M124 292L152 292Q224 292 281.50 304.50Q339 317 373 345Q407 373 407 418Q407 451 385.50 472Q364 493 320 493Q280 493 240.50 469.50Q201 446 170 401Q139 356 124 292M340 606Q323 624 302.50 652Q282 680 264 708Q246 736 236 756L236 766L298 766Q311 728 333.50 687Q356 646 374 618L374 606L340 606Z"  horiz-adv-x="495" vert-adv-y="1000"  />

      
      <glyph glyph-name="unie9" unicode="&#xe9;" d="M244-10Q162-10 108.50 41Q55 92 55 193Q55 261 74.50 323.50Q94 386 130 435.50Q166 485 215.50 513.50Q265 542 324 542Q390 542 427 509.50Q464 477 464 422Q464 334 378 289Q292 244 142 244L116 244Q113 223 113 194Q113 120 149.50 79.50Q186 39 254 39Q294 39 328.50 50Q363 61 395 76L395 26Q365 11 327.50 0.50Q290-10 244-10M124 292L152 292Q224 292 281.50 304.50Q339 317 373 345Q407 373 407 418Q407 451 385.50 472Q364 493 320 493Q280 493 240.50 469.50Q201 446 170 401Q139 356 124 292M281 606L281 616Q301 635 325 661.50Q349 688 371 716Q393 744 407 766L472 766L472 758Q457 738 430.50 710Q404 682 374.50 654Q345 626 319 606L281 606Z"  horiz-adv-x="495" vert-adv-y="1000"  />

      
      <glyph glyph-name="uniea" unicode="&#xea;" d="M244-10Q162-10 108.50 41Q55 92 55 193Q55 261 74.50 323.50Q94 386 130 435.50Q166 485 215.50 513.50Q265 542 324 542Q390 542 427 509.50Q464 477 464 422Q464 334 378 289Q292 244 142 244L116 244Q113 223 113 194Q113 120 149.50 79.50Q186 39 254 39Q294 39 328.50 50Q363 61 395 76L395 26Q365 11 327.50 0.50Q290-10 244-10M124 292L152 292Q224 292 281.50 304.50Q339 317 373 345Q407 373 407 418Q407 451 385.50 472Q364 493 320 493Q280 493 240.50 469.50Q201 446 170 401Q139 356 124 292M182 606L182 616Q202 634 229 660.50Q256 687 282 714.50Q308 742 323 764L376 764Q390 730 413.50 688Q437 646 457 616L456 606L420 606Q400 628 380 657Q360 686 344 714Q316 686 283.50 657Q251 628 222 606L182 606Z"  horiz-adv-x="495" vert-adv-y="1000"  />

      
      <glyph glyph-name="unieb" unicode="&#xeb;" d="M244-10Q162-10 108.50 41Q55 92 55 193Q55 261 74.50 323.50Q94 386 130 435.50Q166 485 215.50 513.50Q265 542 324 542Q390 542 427 509.50Q464 477 464 422Q464 334 378 289Q292 244 142 244L116 244Q113 223 113 194Q113 120 149.50 79.50Q186 39 254 39Q294 39 328.50 50Q363 61 395 76L395 26Q365 11 327.50 0.50Q290-10 244-10M124 292L152 292Q224 292 281.50 304.50Q339 317 373 345Q407 373 407 418Q407 451 385.50 472Q364 493 320 493Q280 493 240.50 469.50Q201 446 170 401Q139 356 124 292M419 639Q389 639 389 670Q389 688 399 704Q409 720 430 720Q446 720 453 711Q460 702 460 689Q460 669 448.50 654Q437 639 419 639M242 639Q211 639 211 670Q211 688 221 704Q231 720 252 720Q268 720 275 711Q282 702 282 689Q282 669 270.50 654Q259 639 242 639Z"  horiz-adv-x="495" vert-adv-y="1000"  />

      
      <glyph glyph-name="uniec" unicode="&#xec;" d="M30 0L143 532L200 532L87 0L30 0M196 606Q179 624 158.50 652Q138 680 120 708Q102 736 92 756L92 766L154 766Q167 728 189.50 687Q212 646 230 618L230 606L196 606Z"  horiz-adv-x="232" vert-adv-y="1000"  />

      
      <glyph glyph-name="unied" unicode="&#xed;" d="M30 0L143 532L200 532L87 0L30 0M137 606L137 616Q157 635 181 661.50Q205 688 227 716Q249 744 263 766L328 766L328 758Q313 738 286.50 710Q260 682 230.50 654Q201 626 175 606L137 606Z"  horiz-adv-x="232" vert-adv-y="1000"  />

      
      <glyph glyph-name="uniee" unicode="&#xee;" d="M30 0L143 532L200 532L87 0L30 0M44 606L44 616Q64 634 91 660.50Q118 687 144 714.50Q170 742 185 764L238 764Q252 730 275.50 688Q299 646 319 616L318 606L282 606Q262 628 242 657Q222 686 206 714Q178 686 145.50 657Q113 628 84 606L44 606Z"  horiz-adv-x="232" vert-adv-y="1000"  />

      
      <glyph glyph-name="unief" unicode="&#xef;" d="M30 0L143 532L200 532L87 0L30 0M280 639Q250 639 250 670Q250 688 260 704Q270 720 291 720Q307 720 314 711Q321 702 321 689Q321 669 309.50 654Q298 639 280 639M103 639Q72 639 72 670Q72 688 82 704Q92 720 113 720Q129 720 136 711Q143 702 143 689Q143 669 131.50 654Q120 639 103 639Z"  horiz-adv-x="232" vert-adv-y="1000"  />

      
      <glyph glyph-name="unif0" unicode="&#xf0;" d="M230-10Q144-10 95 43Q46 96 46 182Q46 257 76 322.50Q106 388 162 428.50Q218 469 297 469Q360 469 399.50 439Q439 409 453 368L456 368Q456 437 437 505Q418 573 374 629L242 556L222 593L344 660Q329 676 310.50 691.50Q292 707 270 723L304 764Q326 747 348.50 727.50Q371 708 390 687L516 756L537 720L420 654Q456 604 482 534Q508 464 508 370Q508 300 492 232Q476 164 442.50 109.50Q409 55 356.50 22.50Q304-10 230-10M232 39Q294 39 340 73.50Q386 108 411 164Q436 220 436 284Q436 313 423 344.50Q410 376 380 398Q350 420 298 420Q234 420 191.50 386Q149 352 127 298Q105 244 105 184Q105 120 138 79.50Q171 39 232 39Z"  horiz-adv-x="560" vert-adv-y="1000"  />

      
      <glyph glyph-name="unif1" unicode="&#xf1;" d="M28-1L142 534L192 534L172 414L173 414Q190 442 218.50 472Q247 502 285.50 523Q324 544 373 544Q438 544 474 509.50Q510 475 510 411Q510 392 507 371.50Q504 351 500 334L428-1L368-1L441 341Q445 360 447.50 375Q450 390 450 404Q450 448 426 469.50Q402 491 359 491Q314 491 270 462.50Q226 434 192 380.50Q158 327 142 252L88-1L28-1M188 612Q201 668 226.50 696.50Q252 725 294 725Q316 725 335 715Q354 705 370.50 692.50Q387 680 402 670Q417 660 432 660Q453 660 468.50 674Q484 688 497 726L537 726Q522 670 496 641Q470 612 428 612Q407 612 389 621.50Q371 631 355 644Q339 657 323 666.50Q307 676 290 676Q269 676 253.50 662Q238 648 226 612L188 612Z"  horiz-adv-x="566" vert-adv-y="1000"  />

      
      <glyph glyph-name="unif2" unicode="&#xf2;" d="M242-9Q150-9 101 47Q52 103 52 195Q52 265 71 327.50Q90 390 125.50 437.50Q161 485 211 512.50Q261 540 324 540Q414 540 463.50 484Q513 428 513 337Q513 271 495.50 209Q478 147 443.50 98Q409 49 358.50 20Q308-9 242-9M246 40Q308 40 355 78.50Q402 117 428 185Q454 253 454 342Q454 382 440 416Q426 450 397 471Q368 492 323 492Q260 492 212 453.50Q164 415 136.50 347.50Q109 280 109 194Q109 122 144 81Q179 40 246 40M351 606Q334 624 313.50 652Q293 680 275 708Q257 736 247 756L247 766L309 766Q322 728 344.50 687Q367 646 385 618L385 606L351 606Z"  horiz-adv-x="564" vert-adv-y="1000"  />

      
      <glyph glyph-name="unif3" unicode="&#xf3;" d="M242-9Q150-9 101 47Q52 103 52 195Q52 265 71 327.50Q90 390 125.50 437.50Q161 485 211 512.50Q261 540 324 540Q414 540 463.50 484Q513 428 513 337Q513 271 495.50 209Q478 147 443.50 98Q409 49 358.50 20Q308-9 242-9M246 40Q308 40 355 78.50Q402 117 428 185Q454 253 454 342Q454 382 440 416Q426 450 397 471Q368 492 323 492Q260 492 212 453.50Q164 415 136.50 347.50Q109 280 109 194Q109 122 144 81Q179 40 246 40M296 606L296 616Q316 635 340 661.50Q364 688 386 716Q408 744 422 766L487 766L487 758Q472 738 445.50 710Q419 682 389.50 654Q360 626 334 606L296 606Z"  horiz-adv-x="564" vert-adv-y="1000"  />

      
      <glyph glyph-name="unif4" unicode="&#xf4;" d="M242-9Q150-9 101 47Q52 103 52 195Q52 265 71 327.50Q90 390 125.50 437.50Q161 485 211 512.50Q261 540 324 540Q414 540 463.50 484Q513 428 513 337Q513 271 495.50 209Q478 147 443.50 98Q409 49 358.50 20Q308-9 242-9M246 40Q308 40 355 78.50Q402 117 428 185Q454 253 454 342Q454 382 440 416Q426 450 397 471Q368 492 323 492Q260 492 212 453.50Q164 415 136.50 347.50Q109 280 109 194Q109 122 144 81Q179 40 246 40M195 606L195 616Q215 634 242 660.50Q269 687 295 714.50Q321 742 336 764L389 764Q403 730 426.50 688Q450 646 470 616L469 606L433 606Q413 628 393 657Q373 686 357 714Q329 686 296.50 657Q264 628 235 606L195 606Z"  horiz-adv-x="564" vert-adv-y="1000"  />

      
      <glyph glyph-name="unif5" unicode="&#xf5;" d="M242-9Q150-9 101 47Q52 103 52 195Q52 265 71 327.50Q90 390 125.50 437.50Q161 485 211 512.50Q261 540 324 540Q414 540 463.50 484Q513 428 513 337Q513 271 495.50 209Q478 147 443.50 98Q409 49 358.50 20Q308-9 242-9M246 40Q308 40 355 78.50Q402 117 428 185Q454 253 454 342Q454 382 440 416Q426 450 397 471Q368 492 323 492Q260 492 212 453.50Q164 415 136.50 347.50Q109 280 109 194Q109 122 144 81Q179 40 246 40M178 612Q191 668 216.50 696.50Q242 725 284 725Q306 725 325 715Q344 705 360.50 692.50Q377 680 392 670Q407 660 422 660Q443 660 458.50 674Q474 688 487 726L527 726Q512 670 486 641Q460 612 418 612Q397 612 379 621.50Q361 631 345 644Q329 657 313 666.50Q297 676 280 676Q259 676 243.50 662Q228 648 216 612L178 612Z"  horiz-adv-x="564" vert-adv-y="1000"  />

      
      <glyph glyph-name="unif6" unicode="&#xf6;" d="M242-9Q150-9 101 47Q52 103 52 195Q52 265 71 327.50Q90 390 125.50 437.50Q161 485 211 512.50Q261 540 324 540Q414 540 463.50 484Q513 428 513 337Q513 271 495.50 209Q478 147 443.50 98Q409 49 358.50 20Q308-9 242-9M246 40Q308 40 355 78.50Q402 117 428 185Q454 253 454 342Q454 382 440 416Q426 450 397 471Q368 492 323 492Q260 492 212 453.50Q164 415 136.50 347.50Q109 280 109 194Q109 122 144 81Q179 40 246 40M438 639Q408 639 408 670Q408 688 418 704Q428 720 449 720Q465 720 472 711Q479 702 479 689Q479 669 467.50 654Q456 639 438 639M261 639Q230 639 230 670Q230 688 240 704Q250 720 271 720Q287 720 294 711Q301 702 301 689Q301 669 289.50 654Q278 639 261 639Z"  horiz-adv-x="564" vert-adv-y="1000"  />

      
      <glyph glyph-name="unif7" unicode="&#xf7;" d="M304 481Q264 481 264 527Q264 572 304 572Q346 572 346 527Q346 481 304 481M72 329L72 376L538 376L538 329L72 329M304 132Q264 132 264 178Q264 224 304 224Q346 224 346 178Q346 132 304 132Z"  horiz-adv-x="571" vert-adv-y="1000"  />

      
      <glyph glyph-name="unif8" unicode="&#xf8;" d="M48-34L12-4L82 73Q52 122 52 195Q52 265 71 327.50Q90 390 125.50 437.50Q161 485 211 512.50Q261 540 324 540Q406 540 454 492L518 564L554 534L484 461Q498 437 505 405.50Q512 374 512 341Q512 275 494.50 212.50Q477 150 443 100Q409 50 358.50 20.50Q308-9 243-9Q200-9 167 3.50Q134 16 112 39L48-34M121 119L420 452Q405 470 381 481Q357 492 323 492Q260 492 211.50 453.50Q163 415 135.50 348.50Q108 282 108 198Q108 150 121 119M246 39Q308 39 355.50 77.50Q403 116 429.50 183Q456 250 456 337Q456 383 444 410L146 78Q180 39 246 39Z"  horiz-adv-x="564" vert-adv-y="1000"  />

      
      <glyph glyph-name="unif9" unicode="&#xf9;" d="M190-10Q127-10 91 24Q55 58 55 122Q55 140 57.50 159Q60 178 64 198L136 532L193 532L120 191Q116 172 114 156.50Q112 141 112 128Q112 39 204 39Q249 39 293.50 68Q338 97 372.50 151Q407 205 423 280L476 532L533 532L420 0L373 0L392 119L389 119Q372 91 343.50 61Q315 31 276.50 10.50Q238-10 190-10M366 606Q349 624 328.50 652Q308 680 290 708Q272 736 262 756L262 766L324 766Q337 728 359.50 687Q382 646 400 618L400 606L366 606Z"  horiz-adv-x="566" vert-adv-y="1000"  />

      
      <glyph glyph-name="unifa" unicode="&#xfa;" d="M190-10Q127-10 91 24Q55 58 55 122Q55 140 57.50 159Q60 178 64 198L136 532L193 532L120 191Q116 172 114 156.50Q112 141 112 128Q112 39 204 39Q249 39 293.50 68Q338 97 372.50 151Q407 205 423 280L476 532L533 532L420 0L373 0L392 119L389 119Q372 91 343.50 61Q315 31 276.50 10.50Q238-10 190-10M306 606L306 616Q326 635 350 661.50Q374 688 396 716Q418 744 432 766L497 766L497 758Q482 738 455.50 710Q429 682 399.50 654Q370 626 344 606L306 606Z"  horiz-adv-x="566" vert-adv-y="1000"  />

      
      <glyph glyph-name="unifb" unicode="&#xfb;" d="M190-10Q127-10 91 24Q55 58 55 122Q55 140 57.50 159Q60 178 64 198L136 532L193 532L120 191Q116 172 114 156.50Q112 141 112 128Q112 39 204 39Q249 39 293.50 68Q338 97 372.50 151Q407 205 423 280L476 532L533 532L420 0L373 0L392 119L389 119Q372 91 343.50 61Q315 31 276.50 10.50Q238-10 190-10M206 606L206 616Q226 634 253 660.50Q280 687 306 714.50Q332 742 347 764L400 764Q414 730 437.50 688Q461 646 481 616L480 606L444 606Q424 628 404 657Q384 686 368 714Q340 686 307.50 657Q275 628 246 606L206 606Z"  horiz-adv-x="566" vert-adv-y="1000"  />

      
      <glyph glyph-name="unifc" unicode="&#xfc;" d="M190-10Q127-10 91 24Q55 58 55 122Q55 140 57.50 159Q60 178 64 198L136 532L193 532L120 191Q116 172 114 156.50Q112 141 112 128Q112 39 204 39Q249 39 293.50 68Q338 97 372.50 151Q407 205 423 280L476 532L533 532L420 0L373 0L392 119L389 119Q372 91 343.50 61Q315 31 276.50 10.50Q238-10 190-10M445 639Q415 639 415 670Q415 688 425 704Q435 720 456 720Q472 720 479 711Q486 702 486 689Q486 669 474.50 654Q463 639 445 639M268 639Q237 639 237 670Q237 688 247 704Q257 720 278 720Q294 720 301 711Q308 702 308 689Q308 669 296.50 654Q285 639 268 639Z"  horiz-adv-x="566" vert-adv-y="1000"  />

      
      <glyph glyph-name="unifd" unicode="&#xfd;" d="M-41-242Q-63-242-77-239Q-91-236-104-232L-104-183Q-91-188-76.50-190.50Q-62-193-43-193Q-5-193 24.50-166.50Q54-140 84-86L134 0L49 532L106 532L153 221Q160 174 164 127.50Q168 81 170 54L172 54Q179 70 191 95.50Q203 121 217.50 150.50Q232 180 246 205L426 532L487 532L136-102Q98-170 58-206Q18-242-41-242M228 606L228 616Q248 635 272 661.50Q296 688 318 716Q340 744 354 766L419 766L419 758Q404 738 377.50 710Q351 682 321.50 654Q292 626 266 606L228 606Z"  horiz-adv-x="438" vert-adv-y="1000"  />

      
      <glyph glyph-name="unife" unicode="&#xfe;" d="M-20-236L191 760L248 760L206 562Q198 524 188.50 484.50Q179 445 170 412L173 412Q194 445 223.50 474.50Q253 504 289.50 523Q326 542 370 542Q439 542 480.50 492.50Q522 443 522 356Q522 289 504.50 224Q487 159 453 106Q419 53 369 21.50Q319-10 254-10Q190-10 154.50 24Q119 58 107 102L104 102Q100 77 94.50 45Q89 13 84-12L37-236L-20-236M251 39Q302 39 341.50 66.50Q381 94 408 140.50Q435 187 449 243.50Q463 300 463 357Q463 422 434.50 457Q406 492 354 492Q310 492 267 462.50Q224 433 190 381Q156 329 141 262Q136 236 133 214Q130 192 130 170Q130 107 161.50 73Q193 39 251 39Z"  horiz-adv-x="574" vert-adv-y="1000"  />

      
      <glyph glyph-name="uniff" unicode="&#xff;" d="M-41-242Q-63-242-77-239Q-91-236-104-232L-104-183Q-91-188-76.50-190.50Q-62-193-43-193Q-5-193 24.50-166.50Q54-140 84-86L134 0L49 532L106 532L153 221Q160 174 164 127.50Q168 81 170 54L172 54Q179 70 191 95.50Q203 121 217.50 150.50Q232 180 246 205L426 532L487 532L136-102Q98-170 58-206Q18-242-41-242M371 639Q341 639 341 670Q341 688 351 704Q361 720 382 720Q398 720 405 711Q412 702 412 689Q412 669 400.50 654Q389 639 371 639M194 639Q163 639 163 670Q163 688 173 704Q183 720 204 720Q220 720 227 711Q234 702 234 689Q234 669 222.50 654Q211 639 194 639Z"  horiz-adv-x="438" vert-adv-y="1000"  />

      
      <glyph glyph-name="uni0100" unicode="&#x0100;" d="M-54 0L350 715L408 715L506 0L449 0L415 246L148 246L10 0L-54 0M176 299L408 299L379 523Q375 552 372.50 586Q370 620 368 650L365 650Q351 619 334.50 586Q318 553 300 521L176 299M260 792L270 840L525 840L515 792L260 792Z"  horiz-adv-x="554" vert-adv-y="1000"  />

      
      <glyph glyph-name="uni0101" unicode="&#x0101;" d="M195-10Q127-10 88.50 39Q50 88 50 176Q50 244 68 309Q86 374 120.50 427Q155 480 204 511Q253 542 315 542Q356 542 384 525Q412 508 428.50 482.50Q445 457 453 430L456 430L486 532L530 532L418 0L372 0L392 119L389 119Q369 89 340 59Q311 29 274.50 9.50Q238-10 195-10M211 39Q252 39 293.50 69Q335 99 368 150Q401 201 416 265Q424 294 426.50 318Q429 342 429 362Q429 422 399.50 457Q370 492 319 492Q270 492 231 465Q192 438 164.50 392.50Q137 347 122.50 290Q108 233 108 174Q108 110 134.50 74.50Q161 39 211 39M222 610L232 658L487 658L477 610L222 610Z"  horiz-adv-x="558" vert-adv-y="1000"  />

      
      <glyph glyph-name="uni0102" unicode="&#x0102;" d="M-54 0L350 715L408 715L506 0L449 0L415 246L148 246L10 0L-54 0M176 299L408 299L379 523Q375 552 372.50 586Q370 620 368 650L365 650Q351 619 334.50 586Q318 553 300 521L176 299M388 788Q338 788 306.50 814Q275 840 275 890Q275 896 275.50 901Q276 906 276 911L316 911Q313 880 329.50 858.50Q346 837 392 837Q438 837 462 857Q486 877 496 911L536 911Q520 847 483 817.50Q446 788 388 788Z"  horiz-adv-x="554" vert-adv-y="1000"  />

      
      <glyph glyph-name="uni0103" unicode="&#x0103;" d="M195-10Q127-10 88.50 39Q50 88 50 176Q50 244 68 309Q86 374 120.50 427Q155 480 204 511Q253 542 315 542Q356 542 384 525Q412 508 428.50 482.50Q445 457 453 430L456 430L486 532L530 532L418 0L372 0L392 119L389 119Q369 89 340 59Q311 29 274.50 9.50Q238-10 195-10M211 39Q252 39 293.50 69Q335 99 368 150Q401 201 416 265Q424 294 426.50 318Q429 342 429 362Q429 422 399.50 457Q370 492 319 492Q270 492 231 465Q192 438 164.50 392.50Q137 347 122.50 290Q108 233 108 174Q108 110 134.50 74.50Q161 39 211 39M350 606Q300 606 268.50 632Q237 658 237 708Q237 714 237.50 719Q238 724 238 729L278 729Q275 698 291.50 676.50Q308 655 354 655Q400 655 424 675Q448 695 458 729L498 729Q482 665 445 635.50Q408 606 350 606Z"  horiz-adv-x="558" vert-adv-y="1000"  />

      
      <glyph glyph-name="uni0104" unicode="&#x0104;" d="M-54 0L350 715L408 715L506 0L449 0L415 246L148 246L10 0L-54 0M176 299L408 299L379 523Q375 552 372.50 586Q370 620 368 650L365 650Q351 619 334.50 586Q318 553 300 521L176 299M417-217Q382-217 360-198.50Q338-180 338-143Q338-110 354.50-83Q371-56 397.50-34.50Q424-13 454 6L492 0Q470-16 446-36.50Q422-57 404.50-82Q387-107 387-136Q387-176 426-176Q438-176 449-174Q460-172 469-170L469-210Q458-213 444.50-215Q431-217 417-217Z"  horiz-adv-x="554" vert-adv-y="1000"  />

      
      <glyph glyph-name="uni0105" unicode="&#x0105;" d="M195-10Q127-10 88.50 39Q50 88 50 176Q50 244 68 309Q86 374 120.50 427Q155 480 204 511Q253 542 315 542Q356 542 384 525Q412 508 428.50 482.50Q445 457 453 430L456 430L486 532L530 532L418 0L372 0L392 119L389 119Q369 89 340 59Q311 29 274.50 9.50Q238-10 195-10M211 39Q252 39 293.50 69Q335 99 368 150Q401 201 416 265Q424 294 426.50 318Q429 342 429 362Q429 422 399.50 457Q370 492 319 492Q270 492 231 465Q192 438 164.50 392.50Q137 347 122.50 290Q108 233 108 174Q108 110 134.50 74.50Q161 39 211 39M338-217Q303-217 281-198.50Q259-180 259-143Q259-110 275.50-83Q292-56 318.50-34.50Q345-13 375 6L413 0Q391-16 367-36.50Q343-57 325.50-82Q308-107 308-136Q308-176 347-176Q359-176 370-174Q381-172 390-170L390-210Q379-213 365.50-215Q352-217 338-217Z"  horiz-adv-x="558" vert-adv-y="1000"  />

      
      <glyph glyph-name="uni0106" unicode="&#x0106;" d="M326-10Q209-10 143.50 64.50Q78 139 78 266Q78 358 104.50 440.50Q131 523 181.50 586.50Q232 650 303.50 687Q375 724 464 724Q562 724 632 686L608 636Q546 672 464 672Q389 672 328.50 640Q268 608 225.50 552Q183 496 160.50 423Q138 350 138 268Q138 163 190 102.50Q242 42 334 42Q380 42 421 50Q462 58 500 71L500 20Q464 7 422-1.50Q380-10 326-10M410 788L410 798Q430 817 454 843.50Q478 870 500 898Q522 926 536 948L601 948L601 940Q586 920 559.50 892Q533 864 503.50 836Q474 808 448 788L410 788Z"  horiz-adv-x="590" vert-adv-y="1000"  />

      
      <glyph glyph-name="uni0107" unicode="&#x0107;" d="M247-10Q156-10 104 44Q52 98 52 192Q52 262 71 325.50Q90 389 126 437.50Q162 486 214 514Q266 542 332 542Q404 542 460 517L443 468Q420 478 391 485Q362 492 332 492Q264 492 214.50 451.50Q165 411 137.50 343.50Q110 276 110 194Q110 126 146.50 82.50Q183 39 252 39Q288 39 318.50 47.50Q349 56 380 70L380 20Q354 7 321-1.50Q288-10 247-10M274 606L274 616Q294 635 318 661.50Q342 688 364 716Q386 744 400 766L465 766L465 758Q450 738 423.50 710Q397 682 367.50 654Q338 626 312 606L274 606Z"  horiz-adv-x="452" vert-adv-y="1000"  />

      
      <glyph glyph-name="uni0108" unicode="&#x0108;" d="M326-10Q209-10 143.50 64.50Q78 139 78 266Q78 358 104.50 440.50Q131 523 181.50 586.50Q232 650 303.50 687Q375 724 464 724Q562 724 632 686L608 636Q546 672 464 672Q389 672 328.50 640Q268 608 225.50 552Q183 496 160.50 423Q138 350 138 268Q138 163 190 102.50Q242 42 334 42Q380 42 421 50Q462 58 500 71L500 20Q464 7 422-1.50Q380-10 326-10M322 788L322 798Q342 816 369 842.50Q396 869 422 896.50Q448 924 463 946L516 946Q530 912 553.50 870Q577 828 597 798L596 788L560 788Q540 810 520 839Q500 868 484 896Q456 868 423.50 839Q391 810 362 788L322 788Z"  horiz-adv-x="590" vert-adv-y="1000"  />

      
      <glyph glyph-name="uni0109" unicode="&#x0109;" d="M247-10Q156-10 104 44Q52 98 52 192Q52 262 71 325.50Q90 389 126 437.50Q162 486 214 514Q266 542 332 542Q404 542 460 517L443 468Q420 478 391 485Q362 492 332 492Q264 492 214.50 451.50Q165 411 137.50 343.50Q110 276 110 194Q110 126 146.50 82.50Q183 39 252 39Q288 39 318.50 47.50Q349 56 380 70L380 20Q354 7 321-1.50Q288-10 247-10M179 606L179 616Q199 634 226 660.50Q253 687 279 714.50Q305 742 320 764L373 764Q387 730 410.50 688Q434 646 454 616L453 606L417 606Q397 628 377 657Q357 686 341 714Q313 686 280.50 657Q248 628 219 606L179 606Z"  horiz-adv-x="452" vert-adv-y="1000"  />

      
      <glyph glyph-name="uni010A" unicode="&#x010A;" d="M326-10Q209-10 143.50 64.50Q78 139 78 266Q78 358 104.50 440.50Q131 523 181.50 586.50Q232 650 303.50 687Q375 724 464 724Q562 724 632 686L608 636Q546 672 464 672Q389 672 328.50 640Q268 608 225.50 552Q183 496 160.50 423Q138 350 138 268Q138 163 190 102.50Q242 42 334 42Q380 42 421 50Q462 58 500 71L500 20Q464 7 422-1.50Q380-10 326-10M476 824Q461 824 451 833Q441 842 441 858Q441 878 452.50 894Q464 910 486 910Q503 910 511.50 900.50Q520 891 520 877Q520 855 507 839.50Q494 824 476 824Z"  horiz-adv-x="590" vert-adv-y="1000"  />

      
      <glyph glyph-name="uni010B" unicode="&#x010B;" d="M247-10Q156-10 104 44Q52 98 52 192Q52 262 71 325.50Q90 389 126 437.50Q162 486 214 514Q266 542 332 542Q404 542 460 517L443 468Q420 478 391 485Q362 492 332 492Q264 492 214.50 451.50Q165 411 137.50 343.50Q110 276 110 194Q110 126 146.50 82.50Q183 39 252 39Q288 39 318.50 47.50Q349 56 380 70L380 20Q354 7 321-1.50Q288-10 247-10M332 642Q317 642 307 651Q297 660 297 676Q297 696 308.50 712Q320 728 342 728Q359 728 367.50 718.50Q376 709 376 695Q376 673 363 657.50Q350 642 332 642Z"  horiz-adv-x="452" vert-adv-y="1000"  />

      
      <glyph glyph-name="uni010C" unicode="&#x010C;" d="M326-10Q209-10 143.50 64.50Q78 139 78 266Q78 358 104.50 440.50Q131 523 181.50 586.50Q232 650 303.50 687Q375 724 464 724Q562 724 632 686L608 636Q546 672 464 672Q389 672 328.50 640Q268 608 225.50 552Q183 496 160.50 423Q138 350 138 268Q138 163 190 102.50Q242 42 334 42Q380 42 421 50Q462 58 500 71L500 20Q464 7 422-1.50Q380-10 326-10M433 788Q421 822 397.50 864.50Q374 907 354 937L354 946L390 946Q410 925 430 895.50Q450 866 466 838Q494 866 527 895Q560 924 588 946L628 946L628 937Q609 919 582 892.50Q555 866 528.50 838Q502 810 487 788L433 788Z"  horiz-adv-x="590" vert-adv-y="1000"  />

      
      <glyph glyph-name="uni010D" unicode="&#x010D;" d="M247-10Q156-10 104 44Q52 98 52 192Q52 262 71 325.50Q90 389 126 437.50Q162 486 214 514Q266 542 332 542Q404 542 460 517L443 468Q420 478 391 485Q362 492 332 492Q264 492 214.50 451.50Q165 411 137.50 343.50Q110 276 110 194Q110 126 146.50 82.50Q183 39 252 39Q288 39 318.50 47.50Q349 56 380 70L380 20Q354 7 321-1.50Q288-10 247-10M299 606Q287 640 263.50 682.50Q240 725 220 755L220 764L256 764Q276 743 296 713.50Q316 684 332 656Q360 684 393 713Q426 742 454 764L494 764L494 755Q475 737 448 710.50Q421 684 394.50 656Q368 628 353 606L299 606Z"  horiz-adv-x="452" vert-adv-y="1000"  />

      
      <glyph glyph-name="uni010E" unicode="&#x010E;" d="M46 0L196 714L354 714Q486 714 561 643Q636 572 636 427Q636 340 609 262.50Q582 185 528 126Q474 67 393.50 33.50Q313 0 206 0L46 0M114 51L210 51Q300 51 368 80.50Q436 110 482.50 162Q529 214 552.50 282Q576 350 576 428Q576 550 514 606.50Q452 663 343 663L244 663L114 51M410 788Q398 822 374.50 864.50Q351 907 331 937L331 946L367 946Q387 925 407 895.50Q427 866 443 838Q471 866 504 895Q537 924 565 946L605 946L605 937Q586 919 559 892.50Q532 866 505.50 838Q479 810 464 788L410 788Z"  horiz-adv-x="672" vert-adv-y="1000"  />

      
      <glyph glyph-name="uni010F" unicode="&#x010F;" d="M194-10Q123-10 85 39Q47 88 47 176Q47 243 64.50 308Q82 373 116 426Q150 479 200 510.50Q250 542 315 542Q358 542 387.50 525.50Q417 509 435 483.50Q453 458 460 430L463 430Q468 464 473.50 497Q479 530 487 564L529 760L585 760L425 0L377 0L397 120L394 120Q371 88 341.50 58Q312 28 275.50 9Q239-10 194-10M210 39Q250 39 290 65Q330 91 363.50 135.50Q397 180 417 238Q437 296 437 361Q437 424 405.50 458Q374 492 317 492Q266 492 227 464.50Q188 437 160.50 391Q133 345 119 288.50Q105 232 105 174Q105 109 131 74Q157 39 210 39M606 600L606 610Q618 626 633.50 653.50Q649 681 663 710Q677 739 685 760L740 760L740 752Q732 732 716 704.50Q700 677 679.50 649Q659 621 638 600L606 600Z"  horiz-adv-x="592" vert-adv-y="1000"  />

      
      <glyph glyph-name="uni0110" unicode="&#x0110;" d="M46 0L114 329L38 329L50 380L126 380L196 714L354 714Q486 714 561 643Q636 572 636 427Q636 340 609 262.50Q582 185 528 126Q474 67 393.50 33.50Q313 0 206 0L46 0M114 51L210 51Q300 51 368 80.50Q436 110 482.50 162Q529 214 552.50 282Q576 350 576 428Q576 550 514 606.50Q452 663 343 663L244 663L184 380L360 380L348 329L173 329L114 51Z"  horiz-adv-x="672" vert-adv-y="1000"  />

      
      <glyph glyph-name="uni0111" unicode="&#x0111;" d="M200-10Q131-10 90.50 39Q50 88 50 176Q50 243 67 308Q84 373 117.50 426Q151 479 201 510.50Q251 542 316 542Q381 542 416.50 508Q452 474 463 431L466 431Q470 457 475 487Q480 517 486 544L501 617L300 617L310 662L512 662L532 760L588 760L568 662L640 662L630 617L558 617L428 0L380 0L400 119L397 119Q376 86 347 56.50Q318 27 281 8.50Q244-10 200-10M216 39Q258 39 298 65.50Q338 92 370 137.50Q402 183 421 241.50Q440 300 440 363Q440 425 408.50 459Q377 493 320 493Q269 493 229.50 465.50Q190 438 163 391.50Q136 345 122 288.50Q108 232 108 174Q108 110 136 74.50Q164 39 216 39Z"  horiz-adv-x="574" vert-adv-y="1000"  />

      
      <glyph glyph-name="uni0112" unicode="&#x0112;" d="M46 0L196 714L556 714L546 662L244 662L188 400L472 400L462 349L178 349L114 52L416 52L406 0L46 0M262 792L272 840L527 840L517 792L262 792Z"  horiz-adv-x="524" vert-adv-y="1000"  />

      
      <glyph glyph-name="uni0113" unicode="&#x0113;" d="M244-10Q162-10 108.50 41Q55 92 55 193Q55 261 74.50 323.50Q94 386 130 435.50Q166 485 215.50 513.50Q265 542 324 542Q390 542 427 509.50Q464 477 464 422Q464 334 378 289Q292 244 142 244L116 244Q113 223 113 194Q113 120 149.50 79.50Q186 39 254 39Q294 39 328.50 50Q363 61 395 76L395 26Q365 11 327.50 0.50Q290-10 244-10M124 292L152 292Q224 292 281.50 304.50Q339 317 373 345Q407 373 407 418Q407 451 385.50 472Q364 493 320 493Q280 493 240.50 469.50Q201 446 170 401Q139 356 124 292M193 610L203 658L458 658L448 610L193 610Z"  horiz-adv-x="495" vert-adv-y="1000"  />

      
      <glyph glyph-name="uni0114" unicode="&#x0114;" d="M46 0L196 714L556 714L546 662L244 662L188 400L472 400L462 349L178 349L114 52L416 52L406 0L46 0M387 788Q337 788 305.50 814Q274 840 274 890Q274 896 274.50 901Q275 906 275 911L315 911Q312 880 328.50 858.50Q345 837 391 837Q437 837 461 857Q485 877 495 911L535 911Q519 847 482 817.50Q445 788 387 788Z"  horiz-adv-x="524" vert-adv-y="1000"  />

      
      <glyph glyph-name="uni0115" unicode="&#x0115;" d="M244-10Q162-10 108.50 41Q55 92 55 193Q55 261 74.50 323.50Q94 386 130 435.50Q166 485 215.50 513.50Q265 542 324 542Q390 542 427 509.50Q464 477 464 422Q464 334 378 289Q292 244 142 244L116 244Q113 223 113 194Q113 120 149.50 79.50Q186 39 254 39Q294 39 328.50 50Q363 61 395 76L395 26Q365 11 327.50 0.50Q290-10 244-10M124 292L152 292Q224 292 281.50 304.50Q339 317 373 345Q407 373 407 418Q407 451 385.50 472Q364 493 320 493Q280 493 240.50 469.50Q201 446 170 401Q139 356 124 292M326 606Q276 606 244.50 632Q213 658 213 708Q213 714 213.50 719Q214 724 214 729L254 729Q251 698 267.50 676.50Q284 655 330 655Q376 655 400 675Q424 695 434 729L474 729Q458 665 421 635.50Q384 606 326 606Z"  horiz-adv-x="495" vert-adv-y="1000"  />

      
      <glyph glyph-name="uni0116" unicode="&#x0116;" d="M46 0L196 714L556 714L546 662L244 662L188 400L472 400L462 349L178 349L114 52L416 52L406 0L46 0M402 824Q387 824 377 833Q367 842 367 858Q367 878 378.50 894Q390 910 412 910Q429 910 437.50 900.50Q446 891 446 877Q446 855 433 839.50Q420 824 402 824Z"  horiz-adv-x="524" vert-adv-y="1000"  />

      
      <glyph glyph-name="uni0117" unicode="&#x0117;" d="M244-10Q162-10 108.50 41Q55 92 55 193Q55 261 74.50 323.50Q94 386 130 435.50Q166 485 215.50 513.50Q265 542 324 542Q390 542 427 509.50Q464 477 464 422Q464 334 378 289Q292 244 142 244L116 244Q113 223 113 194Q113 120 149.50 79.50Q186 39 254 39Q294 39 328.50 50Q363 61 395 76L395 26Q365 11 327.50 0.50Q290-10 244-10M124 292L152 292Q224 292 281.50 304.50Q339 317 373 345Q407 373 407 418Q407 451 385.50 472Q364 493 320 493Q280 493 240.50 469.50Q201 446 170 401Q139 356 124 292M334 642Q319 642 309 651Q299 660 299 676Q299 696 310.50 712Q322 728 344 728Q361 728 369.50 718.50Q378 709 378 695Q378 673 365 657.50Q352 642 334 642Z"  horiz-adv-x="495" vert-adv-y="1000"  />

      
      <glyph glyph-name="uni0118" unicode="&#x0118;" d="M46 0L196 714L556 714L546 662L244 662L188 400L472 400L462 349L178 349L114 52L416 52L406 0L46 0M303-217Q268-217 246-198.50Q224-180 224-143Q224-110 240.50-83Q257-56 283.50-34.50Q310-13 340 6L378 0Q356-16 332-36.50Q308-57 290.50-82Q273-107 273-136Q273-176 312-176Q324-176 335-174Q346-172 355-170L355-210Q344-213 330.50-215Q317-217 303-217Z"  horiz-adv-x="524" vert-adv-y="1000"  />

      
      </font>
</defs>
</svg>
